<?xml version="1.0" encoding="UTF-8"?>
<svg id="Layer_2" data-name="Layer 2" xmlns="http://www.w3.org/2000/svg" xmlns:xlink="http://www.w3.org/1999/xlink" viewBox="0 0 23.74 30.56">
  <defs>
    <style>
      .cls-1 {
        fill: url(#radial-gradient-7);
      }

      .cls-2 {
        fill: url(#radial-gradient-6);
      }

      .cls-3 {
        fill: url(#radial-gradient-5);
      }

      .cls-4 {
        fill: url(#radial-gradient-4);
      }

      .cls-5 {
        fill: url(#radial-gradient-9);
      }

      .cls-6 {
        fill: url(#radial-gradient-8);
      }

      .cls-7 {
        fill: url(#radial-gradient-3);
      }

      .cls-8 {
        fill: url(#radial-gradient-2);
      }

      .cls-9 {
        fill: #ffcc5c;
      }

      .cls-10 {
        fill: url(#linear-gradient-8);
      }

      .cls-11 {
        fill: url(#linear-gradient-7);
      }

      .cls-12 {
        fill: url(#linear-gradient-5);
      }

      .cls-13 {
        fill: url(#linear-gradient-6);
      }

      .cls-14 {
        fill: url(#linear-gradient-9);
      }

      .cls-15 {
        fill: url(#linear-gradient-4);
      }

      .cls-16 {
        fill: url(#linear-gradient-3);
      }

      .cls-17 {
        fill: url(#linear-gradient-2);
      }

      .cls-18 {
        fill: url(#radial-gradient);
      }

      .cls-19 {
        fill: url(#linear-gradient);
      }

      .cls-20 {
        fill: url(#radial-gradient-10);
      }

      .cls-21 {
        fill: #fff;
      }

      .cls-22 {
        fill: #ff6bb5;
      }

      .cls-23 {
        fill: url(#linear-gradient-10);
      }

      .cls-24 {
        fill: url(#linear-gradient-11);
      }

      .cls-25 {
        fill: url(#linear-gradient-12);
      }

      .cls-26 {
        fill: url(#linear-gradient-13);
      }

      .cls-27 {
        fill: url(#linear-gradient-19);
      }

      .cls-28 {
        fill: url(#linear-gradient-14);
      }

      .cls-29 {
        fill: url(#linear-gradient-20);
      }

      .cls-30 {
        fill: url(#linear-gradient-15);
      }

      .cls-31 {
        fill: url(#linear-gradient-16);
      }

      .cls-32 {
        fill: url(#linear-gradient-17);
      }

      .cls-33 {
        fill: url(#linear-gradient-18);
      }

      .cls-34 {
        fill: #d685ff;
      }

      .cls-35 {
        fill: #ff4c96;
      }
    </style>
    <linearGradient id="linear-gradient" x1="-1952.72" y1="2219.2" x2="-1944.52" y2="2219.2" gradientTransform="translate(1103.47 2638.85) rotate(113.96) scale(1.06 .93) skewX(2.43)" gradientUnits="userSpaceOnUse">
      <stop offset=".3" stop-color="#ffd9eb"/>
      <stop offset="1" stop-color="#ff8cd6"/>
    </linearGradient>
    <linearGradient id="linear-gradient-2" x1="18.94" y1="13.59" x2="13.07" y2="10.32" gradientUnits="userSpaceOnUse">
      <stop offset="0" stop-color="#e2abff"/>
      <stop offset=".56" stop-color="#f1deff"/>
    </linearGradient>
    <linearGradient id="linear-gradient-3" x1="-1958.24" y1="2223.96" x2="-1948.04" y2="2223.96" xlink:href="#linear-gradient"/>
    <linearGradient id="linear-gradient-4" x1="15.12" y1="2.6" x2="11.65" y2="7.81" xlink:href="#linear-gradient-2"/>
    <linearGradient id="linear-gradient-5" x1="-1948.32" y1="2229.81" x2="-1939.71" y2="2229.81" xlink:href="#linear-gradient"/>
    <linearGradient id="linear-gradient-6" x1=".58" y1="14.12" x2="5.94" y2="11.91" xlink:href="#linear-gradient-2"/>
    <linearGradient id="linear-gradient-7" x1="-1948.04" y1="2221.38" x2="-1937.61" y2="2221.38" xlink:href="#linear-gradient"/>
    <linearGradient id="linear-gradient-8" x1="10.59" y1="20.58" x2="10.27" y2="14.07" xlink:href="#linear-gradient-2"/>
    <linearGradient id="linear-gradient-9" x1="-1955.63" y1="2230.36" x2="-1947.59" y2="2230.36" xlink:href="#linear-gradient"/>
    <linearGradient id="linear-gradient-10" x1="4.31" y1="3.09" x2="8.61" y2="7.66" xlink:href="#linear-gradient-2"/>
    <radialGradient id="radial-gradient" cx="10.8" cy="10.68" fx="10.8" fy="10.68" r="4.9" gradientUnits="userSpaceOnUse">
      <stop offset=".11" stop-color="#ffd6f4"/>
      <stop offset="1" stop-color="#ebbdff"/>
    </radialGradient>
    <radialGradient id="radial-gradient-2" r="4.9" xlink:href="#radial-gradient"/>
    <radialGradient id="radial-gradient-3" r="4.9" xlink:href="#radial-gradient"/>
    <radialGradient id="radial-gradient-4" r="4.9" xlink:href="#radial-gradient"/>
    <radialGradient id="radial-gradient-5" r="4.9" xlink:href="#radial-gradient"/>
    <linearGradient id="linear-gradient-11" x1="-1840.99" y1="2386.28" x2="-1836.97" y2="2386.28" gradientTransform="translate(2202.26 1901.84) rotate(91.08) scale(1.06 .93) skewX(2.43)" xlink:href="#linear-gradient"/>
    <linearGradient id="linear-gradient-12" x1="-174.75" y1="62.4" x2="-177.63" y2="60.79" gradientTransform="translate(159.78 -100.51) rotate(-22.88)" xlink:href="#linear-gradient-2"/>
    <linearGradient id="linear-gradient-13" x1="-1843.69" y1="2388.61" x2="-1838.69" y2="2388.61" gradientTransform="translate(2202.26 1901.84) rotate(91.08) scale(1.06 .93) skewX(2.43)" xlink:href="#linear-gradient"/>
    <linearGradient id="linear-gradient-14" x1="-176.62" y1="57.01" x2="-178.32" y2="59.57" gradientTransform="translate(159.78 -100.51) rotate(-22.88)" xlink:href="#linear-gradient-2"/>
    <linearGradient id="linear-gradient-15" x1="-1838.83" y1="2391.47" x2="-1834.61" y2="2391.47" gradientTransform="translate(2202.26 1901.84) rotate(91.08) scale(1.06 .93) skewX(2.43)" xlink:href="#linear-gradient"/>
    <linearGradient id="linear-gradient-16" x1="-183.75" y1="62.66" x2="-181.12" y2="61.57" gradientTransform="translate(159.78 -100.51) rotate(-22.88)" xlink:href="#linear-gradient-2"/>
    <linearGradient id="linear-gradient-17" x1="-1838.69" y1="2387.35" x2="-1833.58" y2="2387.35" gradientTransform="translate(2202.26 1901.84) rotate(91.08) scale(1.06 .93) skewX(2.43)" xlink:href="#linear-gradient"/>
    <linearGradient id="linear-gradient-18" x1="-178.84" y1="65.82" x2="-179" y2="62.63" gradientTransform="translate(159.78 -100.51) rotate(-22.88)" xlink:href="#linear-gradient-2"/>
    <linearGradient id="linear-gradient-19" x1="-1842.41" y1="2391.75" x2="-1838.47" y2="2391.75" gradientTransform="translate(2202.26 1901.84) rotate(91.08) scale(1.06 .93) skewX(2.43)" xlink:href="#linear-gradient"/>
    <linearGradient id="linear-gradient-20" x1="-181.92" y1="57.25" x2="-179.82" y2="59.49" gradientTransform="translate(159.78 -100.51) rotate(-22.88)" xlink:href="#linear-gradient-2"/>
    <radialGradient id="radial-gradient-6" cx="-178.74" cy="60.97" fx="-178.74" fy="60.97" r="2.4" gradientTransform="translate(159.78 -100.51) rotate(-22.88)" xlink:href="#radial-gradient"/>
    <radialGradient id="radial-gradient-7" cx="-178.74" cy="60.97" fx="-178.74" fy="60.97" r="2.4" gradientTransform="translate(159.78 -100.51) rotate(-22.88)" xlink:href="#radial-gradient"/>
    <radialGradient id="radial-gradient-8" cx="-178.74" cy="60.97" fx="-178.74" fy="60.97" r="2.4" gradientTransform="translate(159.78 -100.51) rotate(-22.88)" xlink:href="#radial-gradient"/>
    <radialGradient id="radial-gradient-9" cx="-178.74" cy="60.97" fx="-178.74" fy="60.97" r="2.4" gradientTransform="translate(159.78 -100.51) rotate(-22.88)" xlink:href="#radial-gradient"/>
    <radialGradient id="radial-gradient-10" cx="-178.74" cy="60.97" fx="-178.74" fy="60.97" r="2.4" gradientTransform="translate(159.78 -100.51) rotate(-22.88)" xlink:href="#radial-gradient"/>
  </defs>
  <g id="Layer_1-2" data-name="Layer 1">
    <g>
      <g>
        <g>
          <path class="cls-19" d="M19.58,15.61c.99-1.51-.05-2.44-.05-2.44,0,0,1.31-.23,1.12-2.07-.09-.85-.56-2.27-3.17-3.03-2.09-.6-7.33,2.31-7.33,2.31,0,0,3.16,5.48,5.28,6.14,2.64.81,3.7-.2,4.16-.9Z"/>
          <path class="cls-34" d="M19.55,15.59c.49-.69.56-1.76-.12-2.32-.09-.07-.05-.21.05-.25.55-.16.88-.71.89-1.27.15-1.86-1.46-3.12-3.18-3.58-2.45-.24-4.8,1.34-6.89,2.46,0,0,.12-.42.12-.42,1.13,1.75,2.34,3.53,3.79,5.02.72.78,1.58,1.19,2.61,1.36,1.02.2,2.17-.08,2.74-1.01h0ZM19.61,15.63c-.9,1.49-2.96,1.58-4.49,1.08-1.57-.68-2.57-2.13-3.54-3.44-.61-.9-1.19-1.81-1.71-2.76-.08-.15-.02-.33.13-.41,1.71-.84,3.49-1.52,5.32-2.01,1.24-.39,2.62-.29,3.78.36,1.89.69,2.83,4.22.46,4.86,0,0,.07-.25.07-.25.67.74.51,1.82-.01,2.57h0Z"/>
        </g>
        <path class="cls-17" d="M19.58,15.61c.99-1.51-.05-2.44-.05-2.44,0,0,1.31-.23,1.12-2.07-.09-.85-.56-2.27-3.17-3.03-2.09-.6-7.33,2.31-7.33,2.31,0,0,3.16,5.48,5.28,6.14,2.64.81,3.7-.2,4.16-.9Z"/>
        <g>
          <path class="cls-16" d="M17.41,2.8c-1.03-1.41-2.12-.7-2.12-.7,0,0,.17-1.32-1.48-1.71-.75-.18-2.12-.17-3.54,2.1-1.15,1.85-.16,7.98-.16,7.98,0,0,5.78-1.46,6.94-3.35,1.43-2.33.84-3.66.36-4.31Z"/>
          <path class="cls-34" d="M17.38,2.82c-.42-.65-1.34-1.09-2.02-.61-.08.06-.21,0-.21-.11,0-1.24-1.53-1.67-2.5-1.37-3.9,1.48-2.8,6.45-2.23,9.68,0,0-.38-.25-.38-.25,2.67-.99,6.26-1.59,7.49-4.46.42-.91.49-2.04-.14-2.88h0ZM17.43,2.78c1.01,1.31.6,3.19-.16,4.54-1.68,2.17-4.59,2.73-7.09,3.44-.18.05-.36-.07-.38-.25-.22-1.88-.26-3.76-.18-5.65,0-1.28.32-2.62,1.2-3.58.41-.51.95-.96,1.63-1.17,1.32-.44,3.18.47,2.96,2,0,0-.21-.13-.21-.13.85-.42,1.75.09,2.23.8h0Z"/>
        </g>
        <path class="cls-15" d="M17.41,2.8c-1.03-1.41-2.12-.7-2.12-.7,0,0,.17-1.32-1.48-1.71-.75-.18-2.12-.17-3.54,2.1-1.15,1.85-.16,7.98-.16,7.98,0,0,5.78-1.46,6.94-3.35,1.43-2.33.84-3.66.36-4.31Z"/>
        <g>
          <path class="cls-12" d="M.04,11.81c-.03,1.81,1.24,1.93,1.24,1.93,0,0-.91.99.16,2.39.5.65,1.6,1.56,4.09.58,2.01-.8,4.66-6.5,4.66-6.5,0,0-5.41-2.4-7.38-1.62C.37,9.55.05,10.98.04,11.81Z"/>
          <path class="cls-34" d="M.08,11.81c-.05.78.38,1.74,1.22,1.79.1,0,.16.13.1.21-.71,1.01.17,2.31,1.1,2.78,4.06,1.51,6.08-3.56,7.4-6.52,0,0,.16.42.16.42-2.24-.78-4.71-1.92-7.1-1.64-1.38.38-2.89,1.36-2.88,2.96H.08ZM0,11.81c-.03-1.62,1.33-2.9,2.75-3.52,2.61-.69,5.2.68,7.57,1.62.17.07.24.26.16.42-.88,1.7-1.92,3.31-3.08,4.82-.74,1.07-1.82,1.96-3.14,2.18-2.08.7-4.65-1.77-3.08-3.7,0,0,.09.23.09.23C.32,13.66-.04,12.66,0,11.81H0Z"/>
        </g>
        <path class="cls-13" d="M.04,11.81c-.03,1.81,1.24,1.93,1.24,1.93,0,0-.91.99.16,2.39.5.65,1.6,1.56,4.09.58,2.01-.8,4.66-6.5,4.66-6.5,0,0-5.41-2.4-7.38-1.62C.37,9.55.05,10.98.04,11.81Z"/>
        <g>
          <path class="cls-11" d="M8.41,21.62c1.66.61,2.17-.73,2.17-.73,0,0,.63,1.3,2.24.59.74-.33,1.9-1.22,1.74-4.16-.13-2.35-4.44-6.85-4.44-6.85,0,0-3.86,4.82-3.78,7.15.1,2.92,1.32,3.72,2.08,4Z"/>
          <path class="cls-34" d="M8.42,21.58c.76.33,1.77.09,2.03-.74.03-.1.18-.12.24-.03.7,1.14,2.28.53,2.9-.36,2.4-3.67-1.2-7.27-3.7-9.77,0,0,.46-.02.46-.02-1.64,2.53-4.16,5.24-3.65,8.45.14,1.03.67,2.11,1.72,2.47h0ZM8.39,21.65c-2.11-.83-2.82-3.85-2.04-5.81.81-2.08,2.13-3.85,3.51-5.56.11-.15.34-.16.46-.02,2.24,2.9,6.07,6.73,3.78,10.59-.8,1.21-2.99,1.62-3.66.11,0,0,.25-.01.25-.01-.42.87-1.49,1.07-2.31.71h0Z"/>
        </g>
        <path class="cls-10" d="M8.41,21.62c1.66.61,2.17-.73,2.17-.73,0,0,.63,1.3,2.24.59.74-.33,1.9-1.22,1.74-4.16-.13-2.35-4.44-6.85-4.44-6.85,0,0-3.86,4.82-3.78,7.15.1,2.92,1.32,3.72,2.08,4Z"/>
        <g>
          <path class="cls-14" d="M5.6.76c-1.56.55-1.29,1.84-1.29,1.84,0,0-1.12-.58-1.99.91-.4.69-.85,2.05.72,4.19,1.28,1.75,7.09,2.68,7.09,2.68,0,0,.44-6.21-.87-7.92C7.67.36,6.32.51,5.6.76Z"/>
          <path class="cls-34" d="M5.61.8c-.75.23-1.38.99-1.16,1.77.03.1-.08.2-.18.16-1.16-.39-1.93,1.02-2,1.98-.14,4.24,4.64,4.92,7.91,5.36,0,0-.35.28-.35.28-.11-2.8.49-6.47-1.53-8.68-.66-.75-1.7-1.26-2.7-.88h0ZM5.59.73c1.58-.59,3.21.57,4.11,1.84.8,1.44.83,3.12.88,4.7,0,1.05-.03,2.1-.14,3.15-.02.17-.18.29-.35.26-1.81-.38-3.57-.94-5.27-1.65-1.19-.43-2.22-1.29-2.76-2.46-1.12-1.7.07-4.98,2.32-4.09,0,0-.2.15-.2.15-.1-.92.6-1.65,1.41-1.9h0Z"/>
        </g>
        <path class="cls-23" d="M5.6.76c-1.56.55-1.29,1.84-1.29,1.84,0,0-1.12-.58-1.99.91-.4.69-.85,2.05.72,4.19,1.28,1.75,7.09,2.68,7.09,2.68,0,0,.44-6.21-.87-7.92C7.67.36,6.32.51,5.6.76Z"/>
        <g>
          <path class="cls-18" d="M13.09,13.77c.11-.06.22-.13.3-.21.07-.07.04-.23.11-.28.05-.04.2-.02.22-.03.12-.1.21-.07.31-.23.2-.3.01-.72.42-.84.27-.08.74.22.67-.39-.04-.35-.45-.5-.61-.76-.23-.36-.09-.52.05-.86.16-.38.02-.96-.32-1.24-1.77.69-3.34,1.56-3.34,1.56,0,0,.96,1.66,2.18,3.27Z"/>
          <path class="cls-8" d="M14.42,9.34c-.02-.13-.05-.26-.09-.37-.04-.1-.19-.11-.22-.2-.02-.07.04-.2.03-.23-.06-.15,0-.24-.11-.38-.21-.3-.63-.24-.62-.68,0-.29.41-.66-.15-.79-.32-.07-.57.29-.85.37-.39.11-.49-.08-.74-.32-.29-.28-.85-.32-1.19-.07.08,1.98.39,3.84.39,3.84,0,0,1.77-.45,3.55-1.17Z"/>
          <path class="cls-7" d="M10.94,6.57c-.12-.02-.24-.03-.35-.02-.1,0-.16.15-.24.15-.07,0-.17-.11-.19-.1-.15,0-.21-.07-.37-.01-.33.11-.4.55-.79.4-.25-.1-.46-.61-.75-.1-.16.29.08.66.06.96-.02.42-.22.46-.52.64-.34.21-.55.75-.44,1.18,1.8.54,3.56.83,3.56.83,0,0,.13-1.92.03-3.92Z"/>
          <path class="cls-4" d="M7.41,9.2c-.06.11-.1.24-.13.35-.02.1.09.21.06.29-.02.07-.15.13-.15.16-.04.16-.13.19-.13.37,0,.37.37.59.11.93-.17.23-.7.28-.33.73.21.26.63.13.89.24.37.16.35.38.42.74.08.41.51.81.93.83,1.05-1.68,1.83-3.38,1.83-3.38,0,0-1.68-.74-3.5-1.27Z"/>
          <path class="cls-3" d="M8.67,13.7c.08.1.18.18.28.25.08.06.22-.03.28.03.05.04.08.19.1.21.13.09.13.2.3.25.33.12.64-.2.88.18.15.25.04.82.56.57.3-.14.31-.61.49-.85.26-.34.44-.24.79-.2.4.05.88-.27,1.02-.69-1.19-1.6-2.48-2.94-2.48-2.94,0,0-1.18,1.47-2.22,3.18Z"/>
        </g>
        <path class="cls-22" d="M10.39,11.59c.2-.31.46-1.06.48-1.12.03.07.53,1.01.65,1.18.13.18.58.64.64.6.06-.04-.2-.62-.43-.94-.21-.29-.77-.77-.86-.84,0,0,0,0,0-.01.18-.04,1.04-.22,1.22-.28.2-.07.74-.38.72-.45-.02-.08-.61,0-.96.14-.3.11-.84.48-.98.58.02-.19.12-1.12.12-1.32,0-.22-.11-.86-.19-.87-.07,0-.18.61-.17,1.01,0,.35.19,1.05.23,1.19,0,0,0,0,0,0-.11-.05-.98-.48-1.16-.55-.2-.07-.81-.16-.83-.09-.03.07.5.38.85.49.32.11,1.02.14,1.14.15,0,0-.01,0-.01,0,0,0,0,0,.03,0,0,0,0,0,0,.01,0,0,0,0,0,0,0,0,0,0,0,0,0,0,0,0,0,0,0,0,0,0,0,0,0,0,0,0,0,0-.05.06-.73.84-.85,1.02-.12.18-.39.77-.33.82s.49-.39.7-.71Z"/>
        <path class="cls-35" d="M10.67,11.32c-.44-.13-.69-.61-.58-1.08.12-.46.57-.73,1-.6.44.13.7.61.58,1.07-.12.47-.57.74-1.01.61Z"/>
        <path class="cls-9" d="M10.76,10.98c-.28-.08-.44-.39-.36-.68.08-.29.36-.46.64-.38.28.08.44.39.37.68-.07.29-.36.47-.64.38Z"/>
        <path class="cls-9" d="M11.1,10.53s.02,0,.03,0c.05.02.11-.02.13-.08.01-.06-.02-.12-.07-.13,0,0-.02,0-.03,0-.05-.02-.11.02-.13.08s.02.12.07.13h0Z"/>
        <path class="cls-9" d="M11.22,10.48c.74-.14,1.49.1,2.23.12.07,0,.07-.11,0-.11-.76-.02-1.51-.26-2.26-.12-.07.01-.04.12.03.11h0Z"/>
        <path class="cls-9" d="M11.14,10.58c.49.2.98.39,1.47.63.29.14.59.32.89.44.06.02.09-.08.03-.11-.32-.13-.63-.31-.95-.47-.46-.22-.93-.41-1.41-.6-.06-.02-.09.08-.03.11h0Z"/>
        <path class="cls-9" d="M11.2,10.75c.68.4,1.46.83,1.93,1.53.04.06.13,0,.09-.05-.48-.72-1.27-1.16-1.97-1.57-.06-.03-.11.06-.05.09h0Z"/>
        <path class="cls-9" d="M10.95,10.68c-.16.54.06.99.28,1.46.1.21.2.43.3.64.05.11.09.22.14.33.02.04.04.18.07.16-.05.04,0,.14.05.1.08-.06,0-.21-.02-.29-.08-.22-.18-.44-.28-.65-.25-.54-.62-1.1-.44-1.73.02-.07-.08-.1-.1-.03h0Z"/>
        <path class="cls-9" d="M10.72,11.03c-.02.07.08.1.1.03.02-.07-.08-.1-.1-.03h0Z"/>
        <path class="cls-9" d="M10.72,11.05c.02.37-.07.77-.12,1.13-.04.29-.1.58-.14.87,0,.03,0,.06.04.07h0c.07.01.09-.1.03-.11h0s.02.05.04.07c.04-.31.1-.61.14-.92.05-.36.14-.75.12-1.11,0-.07-.11-.07-.1,0h0Z"/>
        <path class="cls-9" d="M10.79,10.86c.02.42.03.85.08,1.27.04.35.08.77.29,1.06.04.06.11-.02.07-.08-.21-.29-.24-.75-.27-1.1-.04-.38-.05-.77-.07-1.16,0-.07-.11-.07-.1,0h0Z"/>
        <path class="cls-9" d="M12.57,8.32c-.14.23-.26.47-.41.68-.16.24-.39.4-.61.58-.15.13-.27.28-.36.46-.04.08-.13.2-.11.3,0,.03.04.05.06.04.02,0,.03-.01.04-.03.05-.05-.02-.13-.07-.08,0,0,0,0,0,0,.02.01.04.03.06.04,0-.06.11-.24.15-.3.12-.22.3-.36.49-.51.38-.3.59-.71.84-1.13.03-.06-.05-.11-.09-.06h0Z"/>
        <path class="cls-9" d="M12.06,7.89c-.02.07.08.1.1.03.02-.07-.08-.1-.1-.03h0Z"/>
        <path class="cls-9" d="M12.06,7.87c-.45.79-.74,1.67-1.19,2.46-.02.04.01.09.06.08.04-.01.05-.02.09-.05.05-.04-.02-.12-.07-.08-.01,0-.03.02-.04.03.02.03.04.05.06.08.46-.79.75-1.67,1.19-2.47.03-.06-.05-.11-.09-.06h0Z"/>
        <path class="cls-9" d="M11.08,7.66c.16.84-.24,1.64-.16,2.48,0,.07.11.07.1,0-.08-.85.31-1.66.16-2.51-.01-.07-.11-.04-.1.03h0Z"/>
        <path class="cls-9" d="M10.75,10.14c-.02.07.08.1.1.03.02-.07-.08-.1-.1-.03h0Z"/>
        <path class="cls-9" d="M10.84,10.13c-.41-.77-.78-1.57-1.21-2.33-.03-.06-.12,0-.09.05.43.76.79,1.56,1.21,2.33.03.06.12,0,.09-.05h0Z"/>
        <path class="cls-9" d="M10.66,10.19c-.22-.45-.56-.86-.88-1.23-.21-.25-.44-.49-.66-.73-.05-.05-.12.03-.07.08.21.23.43.46.63.7.32.37.67.79.89,1.24.03.06.12,0,.09-.05h0Z"/>
        <path class="cls-9" d="M10.56,10.24c-.54-.43-1.18-.76-1.82-.99-.06-.02-.09.08-.03.1.63.22,1.26.55,1.79.98.05.04.1-.05.05-.09h0Z"/>
        <path class="cls-9" d="M10.46,10.48c-.6.14-1.23.28-1.84.29-.07,0-.07.11,0,.11.62,0,1.26-.15,1.87-.29.06-.01.04-.12-.03-.11h0Z"/>
        <path class="cls-9" d="M10.45,10.69c-.3.03-.55.19-.79.38-.24.18-.47.43-.75.53-.06.02-.04.13.03.11.56-.19.91-.84,1.52-.9.06,0,.07-.12,0-.11h0Z"/>
        <path class="cls-9" d="M10.6,10.68c-.35.15-.64.46-.89.75-.21.24-.46.54-.53.86-.02.07.08.1.1.03.07-.33.34-.62.54-.86.23-.27.51-.55.83-.69.06-.03,0-.12-.05-.1h0Z"/>
        <path class="cls-9" d="M13.32,11.51c-.07.27.33.39.4.12.07-.27-.33-.39-.4-.12h0Z"/>
        <path class="cls-9" d="M13,12.11c-.07.27.33.39.4.12.07-.27-.33-.39-.4-.12h0Z"/>
        <path class="cls-9" d="M13.4,10.67s.01,0,.02,0c-.02,0-.03-.02-.05-.02,0,0,0,0,0,0-.01-.01-.03-.02-.04-.04,0,0,0,0,0,0-.01-.02-.02-.03-.03-.04h0s-.01-.03-.02-.05c0,0,0,0,0,0,0-.02,0-.04,0-.06,0,0,0,0,0,0,0-.02,0-.04,0-.06,0,0,0,.01,0,.02-.03.11.04.24.15.27.11.03.22-.04.25-.15.02-.06.01-.13-.02-.19-.03-.06-.09-.1-.15-.11-.11-.03-.22.04-.25.15-.03.11.04.24.15.27h0Z"/>
        <path class="cls-9" d="M12.49,8.25c-.07.27.33.39.4.12.07-.27-.33-.38-.4-.12h0Z"/>
        <path class="cls-9" d="M11.9,7.78c-.07.27.33.38.39.12.07-.27-.33-.38-.39-.12h0Z"/>
        <path class="cls-9" d="M10.99,7.49c-.07.27.32.38.39.11s-.32-.38-.39-.11h0Z"/>
        <path class="cls-9" d="M10.99,7.49c-.07.27.32.38.39.11s-.32-.38-.39-.11h0Z"/>
        <path class="cls-9" d="M9.4,7.65c-.07.27.32.38.39.11.07-.27-.32-.38-.39-.11h0Z"/>
        <path class="cls-9" d="M9.79,7.76s0,0,0,0c.03-.11-.04-.23-.14-.26-.11-.03-.22.04-.25.15,0,.01,0,.02,0,.04-.03.11.03.23.14.26.11.03.22-.04.25-.15,0-.01,0-.02,0-.04.03-.11-.04-.23-.14-.26-.11-.03-.22.04-.25.15,0,0,0,0,0,0-.03.11.04.23.14.26.11.03.22-.04.25-.15h0Z"/>
        <path class="cls-9" d="M8.91,8.22s0,.02,0,.03c-.03.11.04.23.14.27.11.03.22-.04.25-.15,0,0,0-.02,0-.03.03-.11-.04-.23-.14-.27-.11-.03-.22.04-.25.15h0Z"/>
        <path class="cls-9" d="M8.64,9.53s.02,0,.03,0c.11.03.22-.04.25-.15.03-.11-.03-.24-.14-.27,0,0-.02,0-.03,0-.11-.03-.22.04-.25.15-.03.11.03.24.14.27h0Z"/>
        <path class="cls-9" d="M8.35,10.81s0,.02,0,.03c-.03.11.03.24.14.27.11.03.22-.04.25-.15,0,0,0-.02,0-.03.03-.11-.03-.24-.14-.27-.11-.03-.22.04-.25.15h0Z"/>
        <path class="cls-9" d="M8.67,11.54s0,.04-.01.06c-.03.11.04.24.14.27.11.03.22-.04.25-.15,0-.02,0-.04.01-.06.03-.11-.04-.24-.14-.27-.11-.03-.22.04-.25.15h0Z"/>
        <path class="cls-9" d="M9.12,12.39s.02,0,.03,0c.11.03.22-.04.25-.15.03-.12-.04-.24-.14-.27,0,0-.02,0-.03,0-.11-.03-.22.04-.25.15-.03.12.04.24.14.27h0Z"/>
        <path class="cls-9" d="M10.27,12.96c-.07.27.33.39.4.12.07-.27-.33-.39-.4-.12h0Z"/>
        <path class="cls-9" d="M10.27,12.96v.03c-.04.12.03.24.14.27.11.03.22-.04.25-.15,0,0,0-.02,0-.03.03-.12-.04-.24-.14-.27-.11-.03-.22.04-.25.15h0Z"/>
        <path class="cls-9" d="M10.91,13c-.07.27.33.39.4.12.07-.27-.33-.39-.4-.12h0Z"/>
        <path class="cls-9" d="M11.51,13.12s0,.01,0,.02c0-.02.01-.04.02-.05,0,0,0,0,0,0,.01-.01.02-.03.03-.04,0,0,0,0,0,0,.01-.01.03-.02.04-.03,0,0,0,0,0,0,.02,0,.03-.01.05-.02,0,0,0,0,0,0,.02,0,.04,0,.05,0,0,0,0,0,0,0,.02,0,.04,0,.05,0,0,0-.01,0-.02,0-.11-.03-.22.04-.25.15-.03.12.04.24.15.27.06.02.12.02.18-.02.06-.03.09-.09.11-.16.03-.12-.04-.24-.15-.27-.11-.03-.22.04-.25.15h0Z"/>
      </g>
      <path class="cls-21" d="M18.8,11.19c-.03.75-.27,1.27-.73,1.84-.54.66-.93,1.64-.62,2.55.07.21.18.36.3.46.25-.27.46-.58.59-.89.23-.53.25-1.17.56-1.63.3-.43.7-.84.82-1.4.14-.62.1-1.38-.1-1.98-.3-.93-.96-1.32-1.7-1.67.19.16.36.35.49.6.33.66.42,1.36.38,2.11Z"/>
      <path class="cls-21" d="M16.69,4.59l.02.04c.03-1.43-1.75-1.88-2.56-2.65-.3-.28-1.36-1.22-1.28-.15.05.58.81,1,1.28,1.16.56.19,1.17.35,1.59.8.42.45.49,1.05.74,1.58.28-.13.16-.56.2-.8Z"/>
      <path class="cls-21" d="M6.04,1.95c.25-.36.57-.36.9-.61,0-.07-.04-.06-.08-.09l.02-.06c-.38-.12-.92.02-1.22.28-.22.19-.68,1.03-.35,1.26.37.26.59-.57.74-.78Z"/>
      <path class="cls-21" d="M13.66,19.05c0-.17,0-.33-.13-.34h-.07c-.15-.06-.39.42-.56.56-.29.24-.62.24-.99.22-.34-.02-.8-.1-.94.35-.11.36.13.71.43.82.73.27,2.22-.76,2.26-1.6Z"/>
    </g>
    <g>
      <g>
        <g>
          <path class="cls-24" d="M23.7,25.7c.16-.87-.49-1.09-.49-1.09,0,0,.55-.35.11-1.15-.2-.36-.68-.92-2.01-.76-1.06.13-2.87,2.44-2.87,2.44,0,0,2.47,1.87,3.55,1.76,1.35-.14,1.63-.79,1.71-1.2Z"/>
          <path class="cls-34" d="M23.68,25.7c.09-.4-.08-.9-.5-1.02-.05-.01-.07-.08-.03-.12.45-.4.09-1.09-.31-1.41-1.74-1.23-3.34.77-4.29,2.08,0,0-.03-.21-.03-.21,1.26.74,2.56,2,4.1,1.66.49-.1.97-.44,1.05-.98h0ZM23.71,25.7c-.08.53-.52.96-1.02,1.15-1.6.66-3.12-.76-4.35-1.6-.07-.05-.08-.15-.02-.21.85-.91,1.68-1.87,2.84-2.39.61-.14,1.31-.17,1.88.25.53.39.84,1.34.2,1.77,0,0-.02-.13-.02-.13.46.22.58.74.48,1.16h0Z"/>
        </g>
        <path class="cls-25" d="M23.7,25.7c.16-.87-.49-1.09-.49-1.09,0,0,.55-.35.11-1.15-.2-.36-.68-.92-2.01-.76-1.06.13-2.87,2.44-2.87,2.44,0,0,2.47,1.87,3.55,1.76,1.35-.14,1.63-.79,1.71-1.2Z"/>
        <g>
          <path class="cls-26" d="M20.27,20.33c-.73-.44-1.09.09-1.09.09,0,0-.18-.63-.99-.49-.37.06-.99.33-1.2,1.62-.17,1.05,1.45,3.63,1.45,3.63,0,0,2.33-1.76,2.49-2.83.2-1.32-.32-1.81-.66-2.02Z"/>
          <path class="cls-34" d="M20.26,20.35c-.31-.21-.81-.24-1.03.11-.03.04-.1.04-.12,0-.23-.56-1.01-.46-1.39-.14-1.48,1.41-.04,3.45.84,4.8,0,0-.22-.04-.22-.04,1.03-.97,2.52-1.9,2.53-3.44.02-.48-.16-1.02-.61-1.27h0ZM20.28,20.32c.91.55,1.05,2.01.47,2.84-.61.88-1.4,1.53-2.23,2.15-.07.05-.16.03-.21-.03-.72-1.55-2.27-3.65-.79-5.21.51-.46,1.52-.39,1.72.34,0,0-.12-.02-.12-.02.32-.36.83-.28,1.16-.06h0Z"/>
        </g>
        <path class="cls-28" d="M20.27,20.33c-.73-.44-1.09.09-1.09.09,0,0-.18-.63-.99-.49-.37.06-.99.33-1.2,1.62-.17,1.05,1.45,3.63,1.45,3.63,0,0,2.33-1.76,2.49-2.83.2-1.32-.32-1.81-.66-2.02Z"/>
        <g>
          <path class="cls-30" d="M14.15,27.7c.33.82.93.63.93.63,0,0-.22.62.53,1.05.35.2,1.02.4,1.96-.52.76-.74.86-3.82.86-3.82,0,0-2.9-.05-3.64.67-.91.9-.79,1.61-.63,1.98Z"/>
          <path class="cls-34" d="M14.17,27.7c.13.36.5.71.89.57.05-.02.1.03.09.08-.13.59.52,1.01,1.02,1.05,2.12-.1,2.06-2.76,2.1-4.35,0,0,.15.16.15.16-1.37.13-3.12-.09-4.02,1.13-.3.37-.44.9-.24,1.37h0ZM14.13,27.71c-.32-.73.05-1.56.57-2.11,1.05-.8,2.49-.69,3.72-.71.09,0,.16.07.15.16-.24,1.47-.16,3.38-1.47,4.35-.79.72-2.45.07-2.09-1.08,0,0,.09.09.09.09-.49.08-.83-.32-.97-.69h0Z"/>
        </g>
        <path class="cls-31" d="M14.15,27.7c.33.82.93.63.93.63,0,0-.22.62.53,1.05.35.2,1.02.4,1.96-.52.76-.74.86-3.82.86-3.82,0,0-2.9-.05-3.64.67-.91.9-.79,1.61-.63,1.98Z"/>
        <g>
          <path class="cls-32" d="M19.8,30.54c.86-.04.84-.74.84-.74,0,0,.53.47,1.12-.16.27-.29.63-.91,0-2.21-.51-1.04-3.31-2.25-3.31-2.25,0,0-.82,2.91-.35,3.95.6,1.3,1.3,1.43,1.7,1.41Z"/>
          <path class="cls-34" d="M19.79,30.52c.4,0,.82-.3.77-.72,0-.05.06-.09.1-.06.53.38,1.14-.19,1.24-.72.38-2.09-1.93-3.07-3.53-3.71,0,0,.2-.1.2-.1-.26,1.47-.89,3.15-.04,4.51.25.44.7.82,1.25.79h0ZM19.8,30.56c-.85.06-1.49-.71-1.85-1.4-.45-1.32.02-2.75.35-4.02.02-.08.1-.12.18-.1,1.16.6,2.31,1.21,3.23,2.16.36.55.65,1.19.52,1.91-.14.7-1.04,1.3-1.63.75,0,0,.11-.05.11-.05-.03.47-.47.77-.9.76h0Z"/>
        </g>
        <path class="cls-33" d="M19.8,30.54c.86-.04.84-.74.84-.74,0,0,.53.47,1.12-.16.27-.29.63-.91,0-2.21-.51-1.04-3.31-2.25-3.31-2.25,0,0-.82,2.91-.35,3.95.6,1.3,1.3,1.43,1.7,1.41Z"/>
        <g>
          <path class="cls-27" d="M14.56,21.66c-.6.55-.23,1.07-.23,1.07,0,0-.61-.05-.72.79-.05.39,0,1.09,1.12,1.75.91.55,3.71-.14,3.71-.14,0,0-.98-2.89-1.9-3.41-1.12-.64-1.7-.32-1.98-.07Z"/>
          <path class="cls-34" d="M14.57,21.67c-.29.24-.43.71-.19,1.02.03.04,0,.1-.05.1-.59.04-.68.81-.53,1.28.71,1.91,3.06,1.35,4.59.91,0,0-.11.19-.11.19-.6-1.4-1.7-4.75-3.73-3.51h0ZM14.55,21.65c.38-.37.97-.42,1.47-.27,1.6.42,2.04,2.37,2.56,3.71.03.08-.02.17-.11.19-1.2.19-2.4.4-3.61.15-.57-.24-1.12-.61-1.36-1.26-.22-.6.07-1.56.82-1.51,0,0-.06.11-.06.11-.22-.41-.03-.87.27-1.13h0Z"/>
        </g>
        <path class="cls-29" d="M14.56,21.66c-.6.55-.23,1.07-.23,1.07,0,0-.61-.05-.72.79-.05.39,0,1.09,1.12,1.75.91.55,3.71-.14,3.71-.14,0,0-.98-2.89-1.9-3.41-1.12-.64-1.7-.32-1.98-.07Z"/>
        <g>
          <path class="cls-2" d="M20.42,26.11s.07-.1.1-.15c.02-.04-.03-.11,0-.15.02-.03.09-.04.09-.06.04-.07.08-.07.1-.16.03-.18-.13-.33.03-.46.11-.09.38-.04.23-.31-.08-.15-.3-.14-.42-.23-.17-.12-.14-.22-.14-.4,0-.2-.18-.44-.38-.5-.67.65-1.21,1.34-1.21,1.34,0,0,.75.57,1.61,1.06Z"/>
          <path class="cls-1" d="M20.17,23.85c-.03-.06-.07-.11-.11-.15-.04-.04-.11-.01-.14-.05-.02-.03-.02-.1-.03-.11-.05-.06-.05-.11-.12-.15-.15-.09-.33.01-.41-.19-.05-.13.06-.38-.22-.33-.16.03-.2.24-.31.33-.15.12-.23.06-.4,0-.18-.07-.44.02-.55.19.41.88.91,1.66.91,1.66,0,0,.71-.54,1.38-1.2Z"/>
          <path class="cls-6" d="M18.07,23.27c-.06.01-.12.03-.16.06-.04.02-.04.1-.08.11-.03.01-.09-.02-.11-.01-.07.03-.11,0-.17.07-.13.11-.08.33-.28.33-.13,0-.33-.19-.36.1-.02.16.16.28.21.42.07.2-.01.25-.11.39-.11.16-.11.44.03.61.92-.1,1.76-.3,1.76-.3,0,0-.31-.89-.73-1.77Z"/>
          <path class="cls-5" d="M16.98,25.12c0,.06,0,.13,0,.18,0,.05.08.08.08.12,0,.03-.04.09-.04.1.01.08-.02.11.01.19.07.17.28.19.23.4-.03.14-.26.26,0,.39.15.08.31-.06.45-.06.2,0,.23.1.33.25.12.17.38.27.58.2.15-.96.18-1.87.18-1.87,0,0-.9-.02-1.82.09Z"/>
          <path class="cls-20" d="M18.41,26.91c.06.03.12.05.17.06.05,0,.09-.05.13-.04.03,0,.07.07.08.08.08.02.1.06.18.06.17-.01.25-.21.43-.08.12.08.17.36.36.15.11-.12.02-.33.06-.47.05-.2.15-.19.32-.24.19-.05.35-.29.33-.51-.84-.5-1.68-.85-1.68-.85,0,0-.25.89-.39,1.86Z"/>
        </g>
        <path class="cls-22" d="M18.78,25.64c.03-.18,0-.56,0-.6.03.02.43.35.52.41.09.06.38.18.4.15.02-.03-.21-.24-.37-.34-.15-.09-.5-.2-.55-.22,0,0,0,0,0,0,.07-.05.43-.3.5-.36.08-.07.26-.31.24-.34-.02-.03-.27.12-.41.24-.12.11-.29.38-.33.45-.03-.09-.16-.53-.2-.62-.04-.1-.22-.37-.25-.36-.03.01.04.31.12.49.07.16.29.44.33.49,0,0,0,0,0,0-.06,0-.53-.03-.63-.03-.1,0-.39.08-.39.12,0,.04.3.08.48.06.17-.01.49-.13.54-.15,0,0,0,0,0,0,0,0,0,0,.01,0,0,0,0,0,0,0,0,0,0,0,0,0,0,0,0,0,0,0,0,0,0,0,0,0,0,0,0,0,0,0,0,0,0,0,0,0-.01.03-.17.52-.19.62-.02.11-.03.42,0,.44s.15-.27.18-.46Z"/>
        <path class="cls-35" d="M18.86,25.46c-.22.02-.43-.14-.46-.38-.03-.23.12-.44.34-.46.22-.02.43.14.47.37.04.23-.12.44-.34.47Z"/>
        <path class="cls-9" d="M18.83,25.29c-.14.02-.27-.09-.29-.24-.02-.15.07-.28.21-.29.14-.02.27.09.29.24.02.15-.07.28-.21.29Z"/>
        <path class="cls-9" d="M18.9,25.02s0,0,.01,0c.03,0,.05-.03.04-.06,0-.03-.03-.05-.06-.05,0,0,0,0-.01,0-.03,0-.05.03-.04.06s.03.05.06.05h0Z"/>
        <path class="cls-9" d="M18.95,24.97c.31-.21.69-.24,1.03-.37.03-.01,0-.06-.02-.05-.35.13-.73.17-1.04.38-.03.02,0,.06.03.04h0Z"/>
        <path class="cls-9" d="M18.93,25.04c.26,0,.52-.01.78,0,.16,0,.32.03.49.03.03,0,.02-.05,0-.05-.17,0-.35-.02-.52-.03-.25-.01-.5,0-.75,0-.03,0-.02.05,0,.05h0Z"/>
        <path class="cls-9" d="M18.99,25.1c.38.05.82.1,1.16.32.03.02.06-.02.03-.04-.35-.23-.79-.28-1.19-.33-.03,0-.04.05,0,.05h0Z"/>
        <path class="cls-9" d="M18.86,25.12c.03.27.21.43.41.61.09.08.17.15.26.23.04.04.08.08.12.12.01.02.05.07.06.06-.02.03.02.06.04.03.03-.04-.04-.1-.06-.12-.08-.08-.17-.16-.25-.24-.22-.2-.49-.38-.53-.7,0-.03-.05-.03-.05,0h0Z"/>
        <path class="cls-9" d="M18.82,25.32s.06.03.05,0c0-.03-.06-.03-.05,0h0Z"/>
        <path class="cls-9" d="M18.83,25.33c.08.16.12.36.16.53.04.14.07.28.1.42,0,.01.01.03.03.02h0s.02-.06,0-.05h0s.02.02.03.02c-.04-.15-.07-.3-.11-.44-.04-.17-.08-.36-.16-.52-.02-.03-.06-.01-.05.02h0Z"/>
        <path class="cls-9" d="M18.82,25.23c.09.19.18.38.28.56.08.15.18.33.33.42.03.02.05-.03.02-.05-.15-.09-.25-.29-.33-.44-.09-.17-.17-.34-.25-.51-.01-.03-.06-.01-.05.02h0Z"/>
        <path class="cls-9" d="M19.14,23.74c-.02.13-.03.26-.06.39-.03.14-.1.25-.16.38-.05.09-.07.18-.07.28,0,.04-.02.12,0,.16,0,.01.03.01.04,0,0,0,0-.01.01-.02.01-.03-.04-.05-.05-.02,0,0,0,0,0,0,.01,0,.02,0,.04,0-.01-.02,0-.13,0-.17.01-.12.07-.22.13-.32.11-.21.13-.43.16-.67,0-.03-.05-.04-.05,0h0Z"/>
        <path class="cls-9" d="M18.83,23.65s.06.03.05,0c0-.03-.06-.03-.05,0h0Z"/>
        <path class="cls-9" d="M18.83,23.64c-.05.44-.01.9-.07,1.34,0,.02.02.04.04.03.02-.01.02-.02.03-.04.02-.03-.03-.05-.05-.02,0,0,0,.01-.01.02.01,0,.03.02.04.03.06-.44.02-.9.07-1.34,0-.03-.05-.04-.05,0h0Z"/>
        <path class="cls-9" d="M18.34,23.73c.23.35.21.79.4,1.15.02.03.06.01.05-.02-.2-.37-.17-.81-.41-1.16-.02-.03-.06,0-.04.03h0Z"/>
        <path class="cls-9" d="M18.67,24.91s.06.03.05,0c0-.03-.06-.03-.05,0h0Z"/>
        <path class="cls-9" d="M18.71,24.89c-.33-.27-.65-.56-.99-.82-.03-.02-.06.02-.03.04.34.26.65.55.99.82.03.02.06-.02.03-.04h0Z"/>
        <path class="cls-9" d="M18.63,24.95c-.18-.16-.42-.28-.63-.39-.14-.07-.29-.14-.44-.2-.03-.01-.05.03-.02.05.14.06.28.13.42.19.22.11.45.23.64.39.03.02.06-.02.03-.04h0Z"/>
        <path class="cls-9" d="M18.6,24.99c-.33-.09-.68-.12-1.01-.1-.03,0-.02.05,0,.05.33-.02.67.01,1,.1.03,0,.04-.04,0-.05h0Z"/>
        <path class="cls-9" d="M18.6,25.12c-.25.18-.5.36-.78.48-.03.01,0,.06.02.05.28-.12.54-.31.79-.49.03-.02,0-.06-.03-.04h0Z"/>
        <path class="cls-9" d="M18.64,25.22c-.13.07-.21.19-.29.32-.07.13-.13.28-.24.38-.02.02,0,.06.03.04.22-.19.25-.55.52-.7.03-.02,0-.06-.02-.05h0Z"/>
        <path class="cls-9" d="M18.7,25.19c-.13.14-.2.33-.26.51-.05.15-.11.33-.08.49,0,.03.06.03.05,0-.03-.16.03-.34.08-.49.05-.17.13-.34.24-.47.02-.02-.02-.06-.04-.03h0Z"/>
        <path class="cls-9" d="M20.09,25.04c.02.14.22.11.2-.02-.02-.14-.22-.11-.2.02h0Z"/>
        <path class="cls-9" d="M20.06,25.37c.02.14.22.11.2-.02-.02-.14-.22-.11-.2.02h0Z"/>
        <path class="cls-9" d="M19.96,24.65s0,0,0,0c0,0-.02,0-.03,0,0,0,0,0,0,0,0,0-.02,0-.03,0,0,0,0,0,0,0,0,0-.02,0-.02-.01h0s-.01-.01-.02-.02c0,0,0,0,0,0,0,0,0-.02-.01-.02,0,0,0,0,0,0,0,0,0-.02,0-.03,0,0,0,0,0,0,0,.06.06.1.12.09.06,0,.09-.06.08-.12,0-.03-.02-.06-.04-.08-.03-.02-.06-.03-.09-.02-.06,0-.09.06-.08.12,0,.06.06.1.12.09h0Z"/>
        <path class="cls-9" d="M19.09,23.73c.02.13.22.11.2-.02-.02-.13-.22-.11-.2.02h0Z"/>
        <path class="cls-9" d="M18.74,23.63c.02.13.22.11.2-.02-.02-.13-.22-.11-.2.02h0Z"/>
        <path class="cls-9" d="M18.27,23.67c.02.13.22.11.2-.02s-.22-.11-.2.02h0Z"/>
        <path class="cls-9" d="M18.27,23.67c.02.13.22.11.2-.02s-.22-.11-.2.02h0Z"/>
        <path class="cls-9" d="M17.58,24.04c.02.13.22.11.2-.02-.02-.13-.22-.11-.2.02h0Z"/>
        <path class="cls-9" d="M17.78,24.02s0,0,0,0c0-.06-.06-.1-.11-.09-.05,0-.09.06-.08.12,0,0,0,.01,0,.02,0,.06.06.1.11.09.05,0,.09-.06.08-.12,0,0,0-.01,0-.02,0-.06-.06-.1-.11-.09-.05,0-.09.06-.08.12,0,0,0,0,0,0,0,.06.06.1.11.09.05,0,.09-.06.08-.12h0Z"/>
        <path class="cls-9" d="M17.47,24.39s0,0,0,.01c0,.06.06.1.11.09.05,0,.09-.06.08-.12,0,0,0,0,0-.01,0-.06-.06-.1-.11-.09-.05,0-.09.06-.08.12h0Z"/>
        <path class="cls-9" d="M17.6,25.04s0,0,.01,0c.05,0,.09-.06.08-.12,0-.06-.06-.1-.11-.09,0,0,0,0-.01,0-.05,0-.09.06-.08.12,0,.06.06.1.11.09h0Z"/>
        <path class="cls-9" d="M17.71,25.67s0,0,0,.01c0,.06.06.1.12.09.05,0,.09-.06.08-.12,0,0,0,0,0-.01,0-.06-.06-.1-.12-.09-.05,0-.09.06-.08.12h0Z"/>
        <path class="cls-9" d="M18,25.94s0,.02,0,.03c0,.06.06.1.12.09.05,0,.09-.06.08-.12,0,0,0-.02,0-.03,0-.06-.06-.1-.12-.09-.05,0-.09.06-.08.12h0Z"/>
        <path class="cls-9" d="M18.36,26.24s0,0,.01,0c.05,0,.09-.06.08-.12,0-.06-.06-.1-.12-.09,0,0,0,0-.01,0-.05,0-.09.06-.08.12,0,.06.06.1.12.09h0Z"/>
        <path class="cls-9" d="M18.99,26.28c.02.14.22.12.2-.02-.02-.14-.22-.12-.2.02h0Z"/>
        <path class="cls-9" d="M18.99,26.28h0c0,.07.06.12.12.11.06,0,.09-.06.09-.12,0,0,0,0,0-.01,0-.06-.06-.1-.12-.1-.05,0-.09.06-.09.12h0Z"/>
        <path class="cls-9" d="M19.29,26.17c.02.14.22.12.2-.02-.02-.14-.22-.12-.2.02h0Z"/>
        <path class="cls-9" d="M19.58,26.11s0,0,0,0c0,0,0-.02,0-.03,0,0,0,0,0,0,0,0,0-.02,0-.03,0,0,0,0,0,0,0,0,0-.02.01-.02,0,0,0,0,0,0,0,0,.01-.01.02-.02,0,0,0,0,0,0,0,0,.02,0,.02-.01,0,0,0,0,0,0,0,0,.02,0,.03,0,0,0,0,0,0,0-.06,0-.09.06-.09.12,0,.06.06.1.12.1.03,0,.06-.02.08-.04.02-.03.02-.06.02-.09,0-.06-.06-.1-.12-.1-.06,0-.09.06-.09.12h0Z"/>
      </g>
      <path class="cls-21" d="M22.5,23.85c.13.35.12.63.02.97-.12.4-.11.92.21,1.27.07.08.15.13.23.15.06-.17.1-.35.1-.51,0-.28-.11-.58-.06-.84.05-.25.16-.51.1-.79-.06-.31-.22-.64-.42-.87-.31-.36-.69-.41-1.08-.43.12.04.23.09.34.18.28.24.45.54.58.88Z"/>
      <path class="cls-21" d="M20.29,21.28h.02c-.26-.64-1.15-.5-1.66-.69-.19-.07-.85-.29-.6.18.13.25.56.3.8.28.29-.02.59-.06.87.06.28.12.42.38.64.57.1-.11-.03-.28-.06-.4Z"/>
      <path class="cls-21" d="M14.98,22.11c.04-.21.19-.27.29-.44-.01-.03-.03-.02-.05-.03v-.03c-.2.02-.42.18-.5.36-.06.13-.11.59.08.64.22.05.16-.37.18-.49Z"/>
      <path class="cls-21" d="M21.68,28.38c-.03-.08-.06-.15-.12-.13l-.03.02c-.08,0-.1.26-.15.35-.09.16-.23.23-.4.29-.16.06-.38.11-.36.34.02.18.19.3.35.29.38-.02.86-.77.71-1.15Z"/>
    </g>
  </g>
</svg>