<?xml version="1.0" encoding="UTF-8"?>
<svg xmlns="http://www.w3.org/2000/svg" xmlns:xlink="http://www.w3.org/1999/xlink" viewBox="0 0 28.58 24.85">
  <defs>
    <style>
      .cls-1 {
        fill: url(#linear-gradient-8);
      }

      .cls-2 {
        fill: url(#linear-gradient-7);
      }

      .cls-3 {
        fill: url(#linear-gradient-5);
      }

      .cls-4 {
        fill: url(#linear-gradient-6);
      }

      .cls-5 {
        fill: url(#linear-gradient-9);
      }

      .cls-6 {
        fill: url(#linear-gradient-4);
      }

      .cls-7 {
        fill: url(#linear-gradient-3);
      }

      .cls-8 {
        fill: url(#linear-gradient-2);
      }

      .cls-9 {
        opacity: .67;
      }

      .cls-9, .cls-10, .cls-11 {
        fill: #fff;
      }

      .cls-9, .cls-10, .cls-12 {
        mix-blend-mode: overlay;
      }

      .cls-13 {
        fill: url(#linear-gradient);
      }

      .cls-14 {
        fill: #ab5559;
      }

      .cls-15 {
        isolation: isolate;
      }

      .cls-16 {
        fill: url(#linear-gradient-10);
      }

      .cls-17 {
        fill: url(#linear-gradient-11);
      }

      .cls-18 {
        fill: #6a4224;
      }

      .cls-12 {
        opacity: .4;
      }

      .cls-19 {
        fill: #ffd9cd;
      }

      .cls-20 {
        fill: #ab6769;
      }
    </style>
    <linearGradient id="linear-gradient" x1="-5.15" y1="5.6" x2="26.32" y2="-4.42" gradientUnits="userSpaceOnUse">
      <stop offset=".23" stop-color="#e8a077"/>
      <stop offset="1" stop-color="#d08744"/>
    </linearGradient>
    <linearGradient id="linear-gradient-2" x1=".4" y1="23.02" x2="31.87" y2="13" xlink:href="#linear-gradient"/>
    <linearGradient id="linear-gradient-3" x1=".4" y1="23.02" x2="31.87" y2="13" xlink:href="#linear-gradient"/>
    <linearGradient id="linear-gradient-4" x1="-1.55" y1="16.91" x2="29.92" y2="6.88" xlink:href="#linear-gradient"/>
    <linearGradient id="linear-gradient-5" x1="-1.59" y1="16.79" x2="29.88" y2="6.77" xlink:href="#linear-gradient"/>
    <linearGradient id="linear-gradient-6" x1="1.23" y1="25.64" x2="32.7" y2="15.62" xlink:href="#linear-gradient"/>
    <linearGradient id="linear-gradient-7" x1="1.23" y1="25.64" x2="32.7" y2="15.62" xlink:href="#linear-gradient"/>
    <linearGradient id="linear-gradient-8" x1="2.15" y1="28.51" x2="33.61" y2="18.49" xlink:href="#linear-gradient"/>
    <linearGradient id="linear-gradient-9" x1="2.15" y1="28.51" x2="33.61" y2="18.49" xlink:href="#linear-gradient"/>
    <linearGradient id="linear-gradient-10" x1="-4.07" y1="8.99" x2="27.4" y2="-1.03" xlink:href="#linear-gradient"/>
    <linearGradient id="linear-gradient-11" x1="-4.06" y1="8.99" x2="27.39" y2="-1.03" xlink:href="#linear-gradient"/>
  </defs>
  <g class="cls-15">
    <g id="Layer_2" data-name="Layer 2">
      <g id="Layer_1-2" data-name="Layer 1">
        <g>
          <g>
            <path class="cls-13" d="M7.69,2.04S5.66.22,3.98.42s-1.42,3.57-.8,4.47,4.34-2.04,4.51-2.85Z"/>
            <path class="cls-14" d="M7.64,2.06c-1.38-.52-2.65-1.41-4-1.22-1.27.72-.68,2.67-.14,3.7.02.03.08.12.06.06,1.26-.53,2.98-1.55,4.08-2.55h0ZM7.74,2.03c-.27,1.49-3.03,4-4.62,3.43-.72-.5-.69-1.48-.67-2.26.12-.99.14-2.07.89-2.83,1.58-1.05,3.49.34,4.4,1.66h0Z"/>
          </g>
          <path class="cls-13" d="M7.69,2.04S5.66.22,3.98.42s-1.42,3.57-.8,4.47,4.34-2.04,4.51-2.85Z"/>
          <path class="cls-12" d="M5.96,2.92s-1.6-1.78-2.47-1.48-.59,2.74,0,2.9,1.5-.48,1.5-.48"/>
          <g>
            <path class="cls-8" d="M4.94,18.3s.51,2.37,1.22,3.6-.81.81-.97,1.34,3.16.84,3.86.25.27-2.98.27-2.98l-4.37-2.21Z"/>
            <path class="cls-14" d="M4.97,18.34c.68,1.2,1.06,2.43,1.72,3.65.05.17.12.38.03.68-.11.32-.39.44-.54.49-.33.09-.62.1-.72.15-.02,0-.04.04-.03-.02-.03-.08-.03-.04-.01-.02.07.07.18.12.3.17.9.31,2.21.26,3.01-.18.46-.51.16-1.92.06-2.65,0,0,.28.38.28.38-1.48-.74-2.58-1.73-4.1-2.65h0ZM4.91,18.26c1.44.49,3.29,1.06,4.64,1.78.15.08.25.22.28.38.27,2.24.25,4.06-2.56,3.58-.71-.09-1.43-.09-2.11-.39-.08-.07-.21-.11-.22-.34,0-.53.77-.65.94-.79.09-.05.07-.09.04-.05-.7-1.21-1.09-2.69-1.02-4.16h0Z"/>
          </g>
          <path class="cls-7" d="M4.94,18.3s.51,2.37,1.22,3.6-.81.81-.97,1.34,3.16.84,3.86.25.27-2.98.27-2.98l-4.37-2.21Z"/>
          <g class="cls-12">
            <path d="M4.94,18.3s.51,2.37,1.22,3.6-.81.81-.97,1.34,3.16.84,3.86.25.27-2.98.27-2.98l-4.37-2.21Z"/>
          </g>
          <g>
            <path class="cls-6" d="M17.87,4.92s-.8-1.99-4.65-3.54-8.69-.2-10.33,3.54S.03,8.61.37,10.99s3.17,2.95,3.57,3.1-.09,4.94,3.33,6.98,16.37,2.06,18.82-.41,5-12.6-8.22-15.74Z"/>
            <path class="cls-14" d="M17.84,4.96C15.08,1.16,8.9-.24,5.12,2.77c-1.9,1.5-2.44,4.14-3.99,5.97-.88,1.23-.66,3.12.55,4.1.64.54,1.47.84,2.29,1.09.34.11.28.87.35,1.16.21,1.96.8,4.09,2.41,5.34,1.97,1.42,4.58,1.43,6.93,1.63,1.62.08,3.25.07,4.87-.02,1.62-.1,3.24-.29,4.77-.68,1.57-.37,2.78-1,3.39-2.57,3.09-7.2-2.29-12.01-8.86-13.83h0ZM17.9,4.88c7.08,1.05,13.07,6.86,9.73,14.34-.6,1.69-2.34,2.86-4.07,3.14-4.9.97-10.04.92-14.86-.42-3.11-.8-4.43-3.88-4.7-6.82-.02-.2-.1-.73-.17-.89,0,.02.06.03.01.02C1.64,13.78-.37,12.13.06,9.63c.25-1.27,1.19-2.25,1.71-3.37.72-1.44,1.38-3.21,2.81-4.18,4.08-3.2,10.83-1.59,13.32,2.8h0Z"/>
          </g>
          <path class="cls-3" d="M26.09,20.65c-.06.06-.12.11-.19.17-.69.56-1.94.98-3.5,1.26-1.3.24-2.8.39-4.36.44-.18.01-.36.02-.55.02-.87.02-1.75.02-2.62.01-.35-.01-.7-.03-1.04-.04-2.84-.12-5.39-.5-6.64-1.25-.71-.42-1.17-1.16-1.58-1.76-1.59-2.26-1.35-5.29-1.67-5.41s-2.17-.5-3.08-1.84c-.24-.35-.42-.76-.49-1.26-.1-.69-.07-1.18.07-1.61H.44c.25-.79.84-1.41,1.59-2.75.27-.47.57-1.53.87-2.22C4.54.67,9.37-.17,13.22,1.37c3.85,1.55,4.65,3.54,4.65,3.54.15.03.29.07.43.11,1.13.29,2.14.63,3.04,1.02.41.17.79.35,1.15.54,7.9,4.13,5.71,11.93,3.6,14.07Z"/>
          <path class="cls-19" d="M22.4,22.08c-1.45.27-3.16.42-4.91.46.46-1.35.93-3.16,1.3-5.6,1.02-6.7-.14-10.88-.49-11.92,1.64.42,3.03.95,4.19,1.56.49,1.65.89,3.74,1.02,6.32.21,4.25-.41,7.24-1.11,9.18Z"/>
          <path class="cls-12" d="M26.09,20.65c-.64.64-1.98,1.12-3.69,1.43-1.45.27-3.16.42-4.91.46-1.22.03-2.47.02-3.66-.03.77-.88,1.59-1.98,3.28-2.53,2.72-.89,6.88-1.12,7.58-6.79.47-3.75-1.78-6.04-3.35-7.15.41.17.79.35,1.15.54,7.9,4.13,5.71,11.93,3.6,14.07Z"/>
          <path class="cls-19" d="M5.61,19.5c-1.59-2.26-1.35-5.29-1.67-5.41-.4-.15-3.23-.71-3.57-3.1-.28-1.95.48-2.27,1.66-4.36.51-.4,1.08-1,1.59-1.84,1.28-2.13,1.64-1.85,1.87-1.47.24.38-.32,4.21,1.04,5.02,1.37.81,2.51.53,3.6,2.34,1.01,1.69,1.53,8.32-4.52,8.82Z"/>
          <path class="cls-12" d="M15.02,21.53s0,.44-.15,1.02c-.35-.01-.7-.03-1.04-.04-2.84-.12-5.39-.5-6.64-1.25-.71-.42-1.17-1.16-1.58-1.76-1.59-2.26-1.35-5.29-1.67-5.41-.4-.15-3.23-.71-3.57-3.1-.1-.69-.07-1.18.07-1.61.08.56.24,1.13.5,1.66,1.13,2.3,3.52,1.34,4,1.98.47.64.98,4.68,4.66,6.73,3.68,2.04,5.42,1.78,5.42,1.78Z"/>
          <path class="cls-9" d="M26.09,20.65c-.06.06-.12.11-.19.17.41-.71.71-1.49.98-2.31.7-2.1,1.23-5.76-1.31-8.85-2.54-3.1-7.75-3.82-8.08-3.95-.33-.12-.12-.39-1.79-2.17-1.66-1.77-5.1-2.93-8.21-2.14-3.11.8-4.48,3.37-4.87,4.9-.38,1.54-2.07,2.81-2.17,4.22-.04.55.16,1.18.41,1.73-.24-.35-.42-.76-.49-1.26-.1-.69-.07-1.18.07-1.61H.44c.25-.79.84-1.41,1.59-2.75.27-.47.57-1.53.87-2.22C4.54.67,9.37-.17,13.22,1.37c3.85,1.55,4.65,3.54,4.65,3.54.15.03.29.07.43.11,1.13.29,2.14.63,3.04,1.02.41.17.79.35,1.15.54,7.9,4.13,5.71,11.93,3.6,14.07Z"/>
          <g>
            <path class="cls-4" d="M12.48,19.52s-1.11,1.22-1.19,2.54-.91,1.18-.86,1.76,2.14,1.11,3.41.25,3.29-.83,3.92-2.21"/>
            <path class="cls-14" d="M12.52,19.55c-.46,1.03-.71,1.98-.9,3.06-.11.32-.36.62-.62.8-.68.34-.37.62.17.77,1.52.35,2.4-.74,3.66-1.17,1.09-.37,2.12-.36,2.88-1.18.03-.04.1,0,.09.04-.3,1.51-2.14,1.89-3.32,2.42-1.05.67-2.32.73-3.42.21-.41-.14-1.07-.57-.72-1.12.24-.34.45-.58.47-.98,0-1.17.63-2.31,1.63-2.91.04-.03.09.02.07.07h0Z"/>
          </g>
          <path class="cls-2" d="M17.76,21.85c-.64,1.38-2.66,1.35-3.92,2.21-1.27.85-3.35.32-3.41-.25-.01-.1.01-.18.04-.25.17-.33.74-.43.81-1.51.09-1.31,1.2-2.53,1.2-2.53l3,1.32,2.28,1.01Z"/>
          <path class="cls-12" d="M17.76,21.85c-.64,1.38-2.66,1.35-3.92,2.21-1.27.85-3.35.32-3.41-.25-.01-.1.01-.18.04-.25.51.19,1.15.3,1.83.1,1.23-.36,1.79-1.77,3.18-2.82l2.28,1.01Z"/>
          <g>
            <path class="cls-1" d="M27.25,18.85s-.85,2.63-2.39,3.92-3.58,1.31-4.06.93-.24-1.13.13-1.4,1.14-.3,1.14-.3c0,0,.07-1.14,1.36-2.16"/>
            <path class="cls-14" d="M27.3,18.87c-.06,2.15-1.46,3.97-3.43,4.72-1,.44-1.92.99-3.12.62-1.23-.51-.75-2.42.45-2.58.3-.07.56-.1.85-.09l-.46.45c.19-1,.92-1.77,1.8-2.16.05-.02.09.04.06.08-.46.65-.87,1.38-.91,2.15.01.22-.14.4-.36.43-.37.04-1,.21-1.02.34-.49.74.59.71,1.18.76,2.7.07,3.36-3.01,4.85-4.74.03-.04.1-.02.1.03h0Z"/>
          </g>
          <path class="cls-5" d="M27.25,18.85s-.85,2.63-2.39,3.92-3.58,1.31-4.06.93-.24-1.13.13-1.4,1.14-.3,1.14-.3c0,0,.07-1.14,1.36-2.16"/>
          <g class="cls-12">
            <path d="M27.25,18.85s-.85,2.63-2.4,3.92c-1.55,1.3-3.58,1.32-4.05.93-.06-.05-.11-.1-.14-.15-.28-.4-.06-1,.27-1.24.37-.27,1.14-.3,1.14-.3,0,0,.07-1.14,1.35-2.16l3.3-.86.53-.14Z"/>
          </g>
          <path class="cls-9" d="M27.25,18.85s-.85,2.63-2.4,3.92c-1.55,1.3-3.58,1.32-4.05.93-.06-.05-.11-.1-.14-.15.6.07,1.29.03,2.01-.19,2.4-.73,3.36-2.45,4.05-4.37l.53-.14Z"/>
          <g>
            <path class="cls-16" d="M9.44,1.33S13.53-.24,15.41.75s-.7,4.81-1.23,5.01-.04.69-.28.86-1.31-.22-1.31-.22"/>
            <path class="cls-14" d="M9.42,1.29C10.93.17,12.92-.23,14.72.35c1.63.26,2.04,1.69,1.54,3.09-.36,1.05-.91,2.22-1.93,2.75-.01,0,.03-.05.03-.08,0-.03-.02,0-.02.05.16,1.29-1.17.76-1.75.3-.04-.03-.02-.1.04-.09.55.06,1.49.06.94-.08-.1-.23.03-.7.28-.83.04-.05.22-.1.18-.12.75-1.05,1.72-2.46,1.75-3.73-.18-1.24-1.92-.98-2.82-.7-1.12.21-2.26.41-3.49.49-.05,0-.08-.06-.04-.09h0Z"/>
          </g>
          <path class="cls-17" d="M14.19,5.75c-.52.2-.04.69-.28.87-.14.1-.57.01-.9-.09-.23-.06-.41-.13-.41-.13l-3.16-5.07s.33-.13.86-.29c.04-.01.08-.02.12-.03,1.32-.4,3.69-.95,4.99-.27,1.88.99-.7,4.82-1.22,5.01Z"/>
          <path class="cls-12" d="M11.07,3.06s2.46-.91,3.25-.32-.3,2.55-1.42,2.82-2.06-2.11-1.94-2.31"/>
          <path class="cls-20" d="M2.05,10.26s-.35-.97-.79-.74.79.74.79.74Z"/>
          <path class="cls-20" d="M2.98,10.2s.89-.95,1.23-.55-1.23.55-1.23.55Z"/>
          <path class="cls-20" d="M2.43,10.79s-.08.77.21,1.27.72.6.72.6"/>
          <path class="cls-18" d="M9.11,7.51s-1.51.02-1.8-.38-.46-2.32.9-2.52,2.46,1.97.9,2.9Z"/>
          <ellipse class="cls-11" cx="8.33" cy="5.44" rx=".45" ry=".52"/>
          <path class="cls-14" d="M10.67,3.32c.84-.75,3.61-1.88,3.89-.13-.17-.35-.48-.47-.8-.47-1.05.03-2.02.42-3.09.6h0Z"/>
          <ellipse class="cls-10" cx="7.37" cy="1.54" rx="1.18" ry=".57" transform="translate(-.16 1.51) rotate(-11.59)"/>
          <ellipse class="cls-10" cx="6.75" cy="2.57" rx=".5" ry=".31" transform="translate(-.38 1.41) rotate(-11.59)"/>
          <path class="cls-9" d="M14.19,5.75c-.52.2-.04.69-.28.87-.14.1-.57.01-.9-.09.22-.08.47-.17.56-.24.18-.13.05-.62.13-.71.08-.09,2.79-2.72,1.71-4.29-.72-1.03-3.31-.65-4.99-.28,1.32-.4,3.69-.95,4.99-.27,1.88.99-.7,4.82-1.22,5.01Z"/>
        </g>
      </g>
    </g>
  </g>
</svg>