<?xml version="1.0" encoding="UTF-8"?>
<svg xmlns="http://www.w3.org/2000/svg" xmlns:xlink="http://www.w3.org/1999/xlink" viewBox="0 0 23.6 26.17">
  <defs>
    <style>
      .cls-1 {
        fill: #ffe0c2;
      }

      .cls-1, .cls-2 {
        mix-blend-mode: overlay;
      }

      .cls-3 {
        fill: url(#linear-gradient-2);
      }

      .cls-4 {
        fill: #9c6262;
      }

      .cls-5 {
        fill: url(#linear-gradient);
      }

      .cls-6 {
        fill: #96c48c;
      }

      .cls-7 {
        isolation: isolate;
      }

      .cls-8 {
        fill: #fff;
      }

      .cls-2 {
        opacity: .66;
      }

      .cls-9 {
        fill: #ffe8c8;
      }

      .cls-10 {
        fill: #5b9165;
      }

      .cls-11 {
        fill: #ab6769;
      }
    </style>
    <linearGradient id="linear-gradient" x1="12.14" y1="5.44" x2="11.62" y2="26.29" gradientUnits="userSpaceOnUse">
      <stop offset=".23" stop-color="#ffda82"/>
      <stop offset="1" stop-color="#ffd05f"/>
    </linearGradient>
    <linearGradient id="linear-gradient-2" x1="12.14" y1="5.43" x2="11.62" y2="26.28" xlink:href="#linear-gradient"/>
  </defs>
  <g class="cls-7">
    <g id="Layer_2" data-name="Layer 2">
      <g id="Layer_1-2" data-name="Layer 1">
        <g>
          <g>
            <path class="cls-5" d="M23.55,15.78c0,5.53-5.23,10.01-11.67,10.01S.21,21.31.21,15.78,5.44,5.2,11.88,5.2s11.67,5.05,11.67,10.58Z"/>
            <path class="cls-11" d="M23.6,15.78c-.27,10.04-13.04,13.49-19.97,7.3-4.98-4.03-4.76-11.44.18-15.43,7.25-6.41,19.59-1.79,19.79,8.13h0ZM23.5,15.78c-.32-9.09-12.61-13.01-19.09-7.41C-.25,11.95-1.06,19.04,3.86,22.82c6.36,5.3,19.32,2.1,19.65-7.03h0Z"/>
          </g>
          <path class="cls-3" d="M23.55,15.61v.17c0,5.53-5.23,10.01-11.67,10.01-1.76,0-3.43-.34-4.92-.94-2.89-1.15-5.14-3.3-6.15-5.91-.39-1-.6-2.06-.6-3.16,0-3.15,1.69-6.14,4.34-8.13,2-1.51,4.55-2.45,7.33-2.45,6.37,0,11.56,4.94,11.67,10.41Z"/>
          <path class="cls-8" d="M5.79,8.58s-1.79-.21-2.91,2.7,1.17,1.83,2.26.85,1.23-3.32.66-3.55Z"/>
          <path class="cls-8" d="M5.08,13.04s-.6-.07-.98.91.39.62.76.29.42-1.12.22-1.2Z"/>
          <path class="cls-9" d="M23.56,15.61v.17c0,5.52-5.23,10.01-11.68,10.01-5.14,0-9.53-2.88-11.07-6.85,1.13,1.26,2.39,1.51,4.33,2.75,4.41,2.8,12.02.07,14.46-1.9,1.69-1.37,3.06-2.91,3.96-4.17Z"/>
          <path class="cls-2" d="M23.55,15.61v.17c0,5.53-5.23,10.01-11.67,10.01-1.76,0-3.43-.34-4.92-.94,6.13.24,11.41-10.01,4.5-15.27-3.11-2.36-4.94-2.28-6.91-1.93,2-1.51,4.55-2.45,7.33-2.45,6.37,0,11.56,4.94,11.67,10.41Z"/>
          <g>
            <g>
              <path class="cls-6" d="M7.82,6.96c-.5,0-.98-.06-1.43-.17-.86-.23-1.59-.66-2.17-1.27C2.69,3.92,2.94.46,2.95.31v-.13s.14-.01.14-.01c0,0,.21-.02.55-.02,1.06,0,3.66.17,4.95,1.69.74.87,1.14,2.01,1.17,3.38.02.82-.1,1.37-.1,1.39l-.02.09-.08.03s-.75.23-1.74.23Z"/>
              <path class="cls-4" d="M3.64.3c1.1,0,3.59.17,4.83,1.64.89,1.05,1.11,2.33,1.14,3.28v.03c.02.78-.1,1.33-.1,1.33,0,0-.72.22-1.69.22-.43,0-.91-.04-1.4-.17-.72-.19-1.46-.56-2.1-1.22C2.83,3.85,3.11.32,3.11.32c0,0,.2-.02.54-.02M3.64,0c-.35,0-.56.02-.56.02l-.26.02-.02.26c-.01.15-.27,3.68,1.3,5.33.6.63,1.35,1.07,2.24,1.31.47.12.96.18,1.48.18,1.01,0,1.75-.23,1.78-.24l.17-.05.04-.17s.12-.59.11-1.4c-.04-1.43-.45-2.6-1.21-3.5C7.37.17,4.72,0,3.64,0h0Z"/>
            </g>
            <path class="cls-1" d="M9.61,5.23c-.17-.97-.64-2.61-1.94-3.42C5.76.6,3.56.64,3.56.64c0,0-.5,2.78,1.22,4.7.51.57,1.08.99,1.64,1.29-.72-.19-1.46-.56-2.1-1.22C2.83,3.85,3.11.32,3.11.32,3.11.32,6.86.03,8.48,1.94c.89,1.05,1.11,2.33,1.14,3.28Z"/>
            <g>
              <path class="cls-6" d="M11.9,7.48c-.13,0-.26,0-.38-.02-.95-.09-1.65-.49-1.68-.51l-.08-.04v-.09s0-.61.26-1.29l.03-.08h0c.32-.83.85-1.43,1.58-1.78.33-.16.73-.24,1.19-.24,1.15,0,2.32.48,2.37.5l.12.05-.03.13c-.02.1-.61,2.49-2.19,3.15-.37.15-.77.23-1.19.23Z"/>
              <path class="cls-4" d="M12.82,3.57c1.13,0,2.31.49,2.31.49,0,0-.58,2.41-2.1,3.04-.38.16-.77.22-1.13.22-.12,0-.24,0-.36-.02-.93-.09-1.63-.49-1.63-.49,0,0,0-.57.25-1.24,0,0,0-.01.01-.02.23-.63.67-1.34,1.52-1.76.34-.16.73-.22,1.13-.22M12.82,3.27h0c-.49,0-.91.08-1.26.25-.74.36-1.28.95-1.62,1.77h-.06s-.03.2-.03.2c-.25.7-.25,1.29-.25,1.31v.18s.15.09.15.09c.03.02.77.44,1.75.53.12.01.25.02.39.02.44,0,.86-.08,1.25-.24,1.65-.68,2.26-3.15,2.28-3.25l.06-.25-.24-.1c-.05-.02-1.25-.51-2.43-.51h0Z"/>
            </g>
            <path class="cls-1" d="M13.03,7.1c-.51.21-1.03.25-1.49.2.59-.07,1.24-.25,1.67-.66,1.04-.99,1.41-2.42,1.41-2.42,0,0-1.83-.54-3.21.12-.63.3-1.02.78-1.24,1.21.23-.63.67-1.34,1.52-1.76,1.29-.62,3.44.26,3.44.26,0,0-.58,2.41-2.1,3.04Z"/>
            <path class="cls-10" d="M9.64,6.58c-1.61-.91-3.33-2.06-4.08-3.81,1.08,1.5,2.72,2.58,4.08,3.81h0Z"/>
            <path class="cls-10" d="M9.83,6.76c.76-.75,1.65-1.34,2.64-1.74-.76.75-1.65,1.33-2.64,1.74h0Z"/>
          </g>
        </g>
      </g>
    </g>
  </g>
</svg>