<?xml version="1.0" encoding="UTF-8"?>
<svg id="Layer_2" data-name="Layer 2" xmlns="http://www.w3.org/2000/svg" viewBox="0 0 37.4 5.94">
  <defs>
    <style>
      .cls-1 {
        fill: #fff;
      }
    </style>
  </defs>
  <g id="Layer_1-2" data-name="Layer 1">
    <g>
      <path class="cls-1" d="M2.97,1c1.09,0,1.97.88,1.97,1.97s-.88,1.97-1.97,1.97-1.97-.88-1.97-1.97.88-1.97,1.97-1.97M2.97,0C1.33,0,0,1.33,0,2.97s1.33,2.97,2.97,2.97,2.97-1.33,2.97-2.97S4.61,0,2.97,0h0Z"/>
      <path class="cls-1" d="M18.7,1c1.09,0,1.97.88,1.97,1.97s-.88,1.97-1.97,1.97-1.97-.88-1.97-1.97.88-1.97,1.97-1.97M18.7,0c-1.64,0-2.97,1.33-2.97,2.97s1.33,2.97,2.97,2.97,2.97-1.33,2.97-2.97-1.33-2.97-2.97-2.97h0Z"/>
      <path class="cls-1" d="M34.44,1c1.09,0,1.97.88,1.97,1.97s-.88,1.97-1.97,1.97-1.97-.88-1.97-1.97.88-1.97,1.97-1.97M34.44,0c-1.64,0-2.97,1.33-2.97,2.97s1.33,2.97,2.97,2.97,2.97-1.33,2.97-2.97-1.33-2.97-2.97-2.97h0Z"/>
    </g>
  </g>
</svg>