<?xml version="1.0" encoding="UTF-8"?>
<svg xmlns="http://www.w3.org/2000/svg" xmlns:xlink="http://www.w3.org/1999/xlink" viewBox="0 0 26.27 14.36">
  <defs>
    <style>
      .cls-1 {
        fill: url(#linear-gradient-5);
      }

      .cls-2 {
        fill: url(#linear-gradient-3);
      }

      .cls-3 {
        fill: #fff;
      }

      .cls-3, .cls-4, .cls-5, .cls-6, .cls-7, .cls-8 {
        mix-blend-mode: overlay;
      }

      .cls-9 {
        fill: url(#linear-gradient);
      }

      .cls-10 {
        isolation: isolate;
      }

      .cls-11 {
        fill: #6d83d1;
      }

      .cls-4 {
        fill: url(#linear-gradient-2);
      }

      .cls-5 {
        fill: url(#linear-gradient-4);
      }

      .cls-6 {
        fill: url(#linear-gradient-6);
      }

      .cls-7 {
        fill: url(#linear-gradient-7);
      }

      .cls-8 {
        opacity: .43;
      }
    </style>
    <linearGradient id="linear-gradient" x1="1356.92" y1="31.7" x2="1354.91" y2="54.84" gradientTransform="translate(1361.71 -74.78) rotate(178.09) scale(1 -1)" gradientUnits="userSpaceOnUse">
      <stop offset=".05" stop-color="#dbe6ff"/>
      <stop offset=".99" stop-color="#bdd7f5"/>
    </linearGradient>
    <linearGradient id="linear-gradient-2" x1="1356.37" y1="37.76" x2="1365.29" y2="33.24" gradientTransform="translate(1361.71 -74.78) rotate(178.09) scale(1 -1)" gradientUnits="userSpaceOnUse">
      <stop offset="0" stop-color="#fff" stop-opacity="0"/>
      <stop offset="1" stop-color="#fff"/>
    </linearGradient>
    <linearGradient id="linear-gradient-3" x1="9.64" y1="32" x2="7.63" y2="55.15" gradientTransform="translate(8.72 -29.75) rotate(-1.91)" xlink:href="#linear-gradient"/>
    <linearGradient id="linear-gradient-4" x1="9.09" y1="38.06" x2="18.01" y2="33.54" gradientTransform="translate(8.72 -29.75) rotate(-1.91)" xlink:href="#linear-gradient-2"/>
    <linearGradient id="linear-gradient-5" x1="13.17" y1="-4.87" x2="18.57" y2="-4.87" gradientTransform="translate(-2.54 12.81) rotate(-.25) scale(1 1.08)" xlink:href="#linear-gradient"/>
    <linearGradient id="linear-gradient-6" x1="17.87" y1="59.45" x2="16.36" y2="56.64" gradientTransform="translate(-2.81 -49.43) rotate(-.25)" xlink:href="#linear-gradient-2"/>
    <linearGradient id="linear-gradient-7" x1="17.4" y1="59.13" x2="14.78" y2="55.42" gradientTransform="translate(-2.81 -49.43) rotate(-.25)" xlink:href="#linear-gradient-2"/>
  </defs>
  <g class="cls-10">
    <g id="Layer_2" data-name="Layer 2">
      <g id="Layer_1-2" data-name="Layer 1">
        <g>
          <g>
            <g>
              <path class="cls-9" d="M2.84,14.21c-.22,0-.41-.04-.56-.11-1.23-.6-1.77-4.29-1.91-5.41C0,5.72.06,2.14.88,1.04c.22-.3.64-.46,1.24-.46,1.19,0,3.14.59,5.81,1.75,2.61,1.14,5,2.44,5.02,2.45.25.18.44.35.6.53l.05.05c.98,1.14.48,2.29.46,2.34l-.07.15-.14-.07c-1.73-.9-3.4-1.24-4.71-1.34,2.21.45,4.28,1.4,4.77,1.75.14.1.19.17.2.26v.08s-.07.06-.07.06c-.07.05-8.45,5.63-11.19,5.63h0Z"/>
              <path class="cls-11" d="M2.12.73c1.37,0,3.65.82,5.75,1.73,2.64,1.15,5.01,2.44,5.01,2.44.24.18.44.36.6.54h0c.93,1.08.44,2.18.44,2.18-2.25-1.17-4.41-1.4-5.77-1.4-.88,0-1.42.1-1.42.1.06,0,.12,0,.18,0,2.79,0,6.2,1.48,6.9,1.97.11.08.15.13.12.15-.22.18-8.45,5.6-11.1,5.6-.2,0-.36-.03-.49-.09-.86-.42-1.51-2.72-1.83-5.29C.14,5.6.23,2.17,1,1.13c.2-.28.6-.39,1.12-.39M2.12.43c-.65,0-1.11.17-1.36.52C-.12,2.14-.14,5.81.22,8.71c.18,1.46.74,4.92,2,5.53.17.08.38.12.62.12,2.85,0,11.22-5.61,11.29-5.66l.12-.09v-.17c0-.18-.12-.29-.25-.38-.16-.11-.48-.29-.92-.49.23.1.47.22.71.34l.29.15.13-.29c.02-.05.56-1.29-.49-2.5l-.09-.11h0c-.15-.16-.33-.32-.55-.48-.06-.03-2.45-1.33-5.07-2.48C5.31,1.02,3.33.43,2.12.43h0Z"/>
            </g>
            <path class="cls-8" d="M.52,8.67c.32,2.57.97,4.88,1.83,5.3,1.89.92,11.36-5.32,11.59-5.51.23-.18-3.96-2.2-7.2-2.13,0,0,3.48-.62,7.18,1.3,0,0,.67-1.5-1.04-2.72,0,0-2.37-1.29-5.01-2.44,1.08.8,3.16,2.43,3.14,2.92-.02.66-5.08.14-5.16.77-.08.63,4.29,1.14,4.32,1.68s-4.73,3.29-7.09,3.49c-1.31.11-2.11-1.34-2.57-2.65Z"/>
            <path class="cls-4" d="M10.6,5.17S3.36.8,1.97,1.8s-.64,7.93.57,8.76,6.85-2,6.63-2.63-3.98-.78-4.08-1.66,2.82-1.12,4.06-.97,1.55-.05,1.45-.12Z"/>
            <path class="cls-3" d="M.52,8.67c.32,2.57.97,4.88,1.83,5.29,1.89.92,11.36-5.32,11.59-5.51.03-.02-.01-.08-.12-.15-.01,0-.03.02-.04.02-4.5,2.89-11.12,7.57-12.09,3.44C.73,7.64.34.82,2.12,1.17c3.33.67,8.52,3.09,11.35,4.28-.15-.19-.35-.36-.6-.54,0,0-2.37-1.29-5.01-2.44C4.97,1.21,1.75.12,1,1.13.23,2.17.14,5.6.52,8.67Z"/>
            <ellipse class="cls-3" cx=".94" cy="3.63" rx=".59" ry="1.5" transform="translate(-.12 .03) rotate(-1.91)"/>
            <ellipse class="cls-3" cx="1.92" cy="5.63" rx=".46" ry=".73" transform="translate(-.19 .07) rotate(-1.91)"/>
          </g>
          <g>
            <g>
              <path class="cls-2" d="M23.82,13.81c-2.9,0-11.32-4.83-11.39-4.88l-.06-.04-.02-.09c0-.09.05-.17.18-.27.48-.39,2.47-1.47,4.64-2.07-1.3.19-2.94.64-4.61,1.65l-.14.08-.08-.14s-.6-1.17.31-2.37l.05-.06h0c.14-.18.32-.36.54-.54.04-.03,2.33-1.48,4.87-2.79C20.85.87,22.83.15,23.99.15c.49,0,.84.13,1.06.38.89,1.05,1.19,4.62,1.02,7.6-.06,1.12-.36,4.85-1.55,5.53-.18.1-.41.15-.71.15Z"/>
              <path class="cls-11" d="M23.99.3c.42,0,.75.1.94.33.84.99,1.16,4.41.99,7.5-.15,2.58-.65,4.93-1.47,5.4-.16.09-.37.13-.63.13-2.8,0-11.07-4.7-11.3-4.85-.03-.02,0-.08.11-.16.68-.55,4.12-2.32,6.94-2.44,0,0-.25-.03-.68-.03-1.19,0-3.78.21-6.4,1.8,0,0-.57-1.07.29-2.21h0c.14-.2.33-.39.56-.58,0,0,2.28-1.45,4.84-2.77,2.14-1.1,4.47-2.12,5.82-2.12M23.99,0c-1.19,0-3.19.72-5.96,2.15-2.54,1.32-4.84,2.77-4.86,2.78-.23.19-.41.36-.55.54h0s-.09.12-.09.12c-.96,1.28-.34,2.48-.32,2.53l.15.28.28-.17c.21-.13.41-.24.62-.35-.39.22-.68.4-.83.52-.12.1-.24.22-.23.4v.16s.15.1.15.1c.06.04,8.46,4.9,11.46,4.9.33,0,.58-.06.78-.17,1.22-.69,1.54-4.18,1.62-5.65.16-2.92-.1-6.58-1.06-7.71-.24-.29-.64-.43-1.17-.43h0Z"/>
            </g>
            <path class="cls-8" d="M25.92,8.12c-.15,2.59-.64,4.93-1.47,5.4-1.82,1.05-11.68-4.55-11.93-4.72-.24-.16,3.81-2.46,7.04-2.6,0,0-3.51-.39-7.08,1.77,0,0-.77-1.45.86-2.78,0,0,2.28-1.45,4.84-2.77-1.02.87-2.99,2.64-2.94,3.12.07.66,5.08-.2,5.2.42.12.62-4.2,1.42-4.2,1.96s4.94,2.96,7.3,3.01c1.31.03,2.02-1.48,2.39-2.81Z"/>
            <path class="cls-5" d="M15.63,5.3S22.56.46,24.01,1.36s1.17,7.87.01,8.78-6.97-1.54-6.79-2.19,3.92-1.04,3.96-1.93-2.89-.93-4.11-.7-1.55.05-1.45-.02Z"/>
            <path class="cls-3" d="M25.92,8.13c-.15,2.58-.65,4.93-1.47,5.4-1.82,1.05-11.68-4.55-11.93-4.72-.03-.02,0-.08.11-.16.01,0,.03.02.04.02,4.68,2.58,11.6,6.81,12.29,2.63.69-4.18.62-11.01-1.13-10.54-3.28.89-8.29,3.65-11.04,5.02.14-.2.33-.39.56-.58,0,0,2.28-1.45,4.84-2.77,2.81-1.45,5.95-2.75,6.76-1.79.84.99,1.16,4.41.99,7.5Z"/>
            <ellipse class="cls-3" cx="25.16" cy="3.12" rx=".59" ry="1.5" transform="translate(-.09 .84) rotate(-1.91)"/>
            <ellipse class="cls-3" cx="24.32" cy="5.19" rx=".46" ry=".73" transform="translate(-.16 .81) rotate(-1.91)"/>
          </g>
          <g>
            <g>
              <path class="cls-1" d="M13.31,10.37c-.31,0-.59-.05-.86-.16-1.09-.39-1.83-1.48-1.84-2.73,0-.11,0-.21.02-.32.07-.64.31-1.21.69-1.65.06-.09.14-.17.23-.25.08-.08.18-.15.27-.22.13-.09.19-.12.25-.15.05-.03.12-.06.19-.09.15-.07.26-.11.36-.14l.25-.05s.09-.02.14-.03c.12-.02.2-.02.28-.02,1.51,0,2.72,1.3,2.73,2.9,0,.12-.01.24-.02.35,0,.09-.03.18-.04.27-.23,1.08-.99,1.92-1.95,2.2-.25.06-.47.09-.67.09h0Z"/>
              <path class="cls-11" d="M13.31,4.72c1.4,0,2.54,1.22,2.55,2.75,0,.12,0,.23-.02.34-.01.1-.03.2-.05.3-.21.99-.92,1.78-1.83,2.03-.2.05-.42.08-.63.08h-.01c-.28,0-.55-.05-.8-.15-1.01-.35-1.74-1.37-1.74-2.59,0-.12,0-.22.02-.34.06-.59.29-1.12.65-1.53.06-.09.14-.16.22-.24.07-.07.16-.14.25-.2.07-.05.15-.1.22-.14.07-.05.16-.08.23-.12.1-.05.19-.08.29-.11.07-.01.16-.04.24-.05.06-.02.13-.02.2-.04.06-.01.14-.01.21-.01h.01M13.31,4.41h-.01c-.1,0-.19,0-.27.02h-.05s-.11.02-.18.04c-.04,0-.07.01-.11.02-.03,0-.07.02-.1.02-.14.03-.26.08-.37.13l-.04.02c-.07.03-.15.07-.22.11-.03.01-.1.05-.16.1l-.07.04c-.11.07-.21.15-.29.23-.1.09-.19.18-.27.29-.38.43-.63,1.04-.7,1.67-.01.15-.02.25-.02.37,0,1.31.79,2.46,1.95,2.87.27.11.57.16.9.16.22,0,.45-.03.71-.09,1.03-.29,1.83-1.18,2.06-2.27h0s.01-.05.01-.05c.02-.1.04-.19.05-.28.01-.11.02-.24.02-.37,0-1.68-1.29-3.05-2.85-3.05h0Z"/>
            </g>
            <path class="cls-6" d="M15.78,8.1c-.21.99-.92,1.78-1.83,2.03l-1.89-4.57-.16-.39c.07-.05.15-.1.22-.14.07-.05.16-.08.23-.12.1-.05.19-.08.29-.11.07-.01.16-.04.24-.05l.3.33,2.6,3Z"/>
            <path class="cls-7" d="M15.85,7.46c0,.12,0,.23-.02.34-.13-1.2-.65-2.43-1.7-2.66-.33-.07-.65-.09-.95-.04-.43.06-.81.22-1.12.47-.74.58-1.11,1.64-.76,2.89.21.76.68,1.27,1.21,1.62-1.01-.35-1.74-1.37-1.74-2.59,0-.12,0-.22.02-.34.06-.59.29-1.12.65-1.53.06-.09.14-.16.22-.24.07-.07.16-.14.25-.2.07-.05.15-.1.22-.14.07-.05.16-.08.23-.12.1-.05.19-.08.29-.11.07-.01.16-.04.24-.05.06-.02.13-.02.2-.04.06-.01.14-.01.21-.01,1.4,0,2.55,1.22,2.56,2.75Z"/>
          </g>
        </g>
      </g>
    </g>
  </g>
</svg>