<?xml version="1.0" encoding="UTF-8"?>
<svg xmlns="http://www.w3.org/2000/svg" xmlns:xlink="http://www.w3.org/1999/xlink" viewBox="0 0 43.66 35">
  <defs>
    <style>
      .cls-1 {
        fill: url(#linear-gradient-6);
      }

      .cls-2 {
        fill: url(#linear-gradient-9);
      }

      .cls-3 {
        fill: url(#linear-gradient-2);
      }

      .cls-4 {
        fill: url(#linear-gradient-15);
      }

      .cls-4, .cls-5, .cls-6, .cls-7, .cls-8, .cls-9, .cls-10, .cls-11, .cls-12, .cls-13, .cls-14, .cls-15, .cls-16, .cls-17, .cls-18, .cls-19 {
        mix-blend-mode: overlay;
      }

      .cls-4, .cls-5, .cls-6, .cls-7, .cls-8, .cls-18, .cls-19 {
        opacity: .89;
      }

      .cls-5 {
        fill: url(#linear-gradient-21);
      }

      .cls-6 {
        fill: url(#linear-gradient-24);
      }

      .cls-7 {
        fill: url(#linear-gradient-18);
      }

      .cls-8 {
        fill: url(#linear-gradient-10);
      }

      .cls-20 {
        fill: url(#linear-gradient);
      }

      .cls-21 {
        isolation: isolate;
      }

      .cls-22 {
        fill: #6d83d1;
      }

      .cls-23 {
        fill: #495fa6;
      }

      .cls-9 {
        fill: url(#linear-gradient-8);
      }

      .cls-10 {
        fill: url(#linear-gradient-3);
      }

      .cls-11 {
        fill: url(#linear-gradient-5);
      }

      .cls-12 {
        fill: url(#linear-gradient-11);
      }

      .cls-13 {
        fill: url(#linear-gradient-22);
      }

      .cls-14 {
        fill: url(#linear-gradient-19);
      }

      .cls-15 {
        fill: url(#linear-gradient-14);
      }

      .cls-16 {
        fill: url(#linear-gradient-16);
      }

      .cls-17 {
        fill: url(#linear-gradient-25);
      }

      .cls-24 {
        fill: url(#linear-gradient-12);
      }

      .cls-25 {
        fill: url(#linear-gradient-13);
      }

      .cls-26 {
        fill: url(#linear-gradient-20);
      }

      .cls-27 {
        fill: url(#linear-gradient-23);
      }

      .cls-28 {
        fill: url(#linear-gradient-17);
      }

      .cls-18 {
        fill: url(#linear-gradient-4);
      }

      .cls-19 {
        fill: url(#linear-gradient-7);
      }
    </style>
    <linearGradient id="linear-gradient" x1="202.57" y1="80.91" x2="222.97" y2="80.91" gradientTransform="translate(-142.19 -152.77) rotate(26.94)" gradientUnits="userSpaceOnUse">
      <stop offset=".05" stop-color="#dbe6ff"/>
      <stop offset=".99" stop-color="#bdd7f5"/>
    </linearGradient>
    <linearGradient id="linear-gradient-2" x1="206.31" y1="80.08" x2="221.64" y2="80.08" gradientTransform="translate(-142.19 -152.77) rotate(26.94)" gradientUnits="userSpaceOnUse">
      <stop offset=".06" stop-color="#99d9ff"/>
      <stop offset=".99" stop-color="#87bdff"/>
    </linearGradient>
    <linearGradient id="linear-gradient-3" x1="218.65" y1="74.14" x2="212.73" y2="82.52" gradientTransform="translate(-142.19 -152.77) rotate(26.94)" gradientUnits="userSpaceOnUse">
      <stop offset="0" stop-color="#fdd6e3" stop-opacity="0"/>
      <stop offset="1" stop-color="#fff" stop-opacity=".9"/>
    </linearGradient>
    <linearGradient id="linear-gradient-4" x1="202.77" y1="80.92" x2="222.82" y2="80.92" gradientTransform="translate(-142.19 -152.77) rotate(26.94)" gradientUnits="userSpaceOnUse">
      <stop offset="0" stop-color="#000" stop-opacity="0"/>
      <stop offset="1" stop-color="#1c1c1c" stop-opacity=".9"/>
    </linearGradient>
    <linearGradient id="linear-gradient-5" x1="212.16" y1="82.72" x2="210.04" y2="89.72" xlink:href="#linear-gradient-3"/>
    <linearGradient id="linear-gradient-6" x1="203.82" y1="74.58" x2="222.13" y2="74.58" xlink:href="#linear-gradient"/>
    <linearGradient id="linear-gradient-7" x1="203.97" y1="74.59" x2="221.98" y2="74.59" xlink:href="#linear-gradient-4"/>
    <linearGradient id="linear-gradient-8" x1="213.59" y1="69.37" x2="210.92" y2="76.24" xlink:href="#linear-gradient-3"/>
    <linearGradient id="linear-gradient-9" x1="203.5" y1="74.7" x2="222.09" y2="74.7" xlink:href="#linear-gradient-2"/>
    <linearGradient id="linear-gradient-10" x1="201" y1="70.57" x2="214.99" y2="75.42" xlink:href="#linear-gradient-4"/>
    <linearGradient id="linear-gradient-11" x1="214.31" y1="78.36" x2="209.63" y2="72.11" xlink:href="#linear-gradient-3"/>
    <linearGradient id="linear-gradient-12" x1="485.06" y1="81.36" x2="505.46" y2="81.36" gradientTransform="translate(507.21 177.25) rotate(-153.06) scale(1 -1)" xlink:href="#linear-gradient"/>
    <linearGradient id="linear-gradient-13" x1="488.8" y1="80.53" x2="504.14" y2="80.53" gradientTransform="translate(507.21 177.25) rotate(-153.06) scale(1 -1)" xlink:href="#linear-gradient-2"/>
    <linearGradient id="linear-gradient-14" x1="501.15" y1="74.59" x2="495.23" y2="82.97" gradientTransform="translate(507.21 177.25) rotate(-153.06) scale(1 -1)" xlink:href="#linear-gradient-3"/>
    <linearGradient id="linear-gradient-15" x1="485.26" y1="81.38" x2="505.31" y2="81.38" gradientTransform="translate(507.21 177.25) rotate(-153.06) scale(1 -1)" xlink:href="#linear-gradient-4"/>
    <linearGradient id="linear-gradient-16" x1="494.66" y1="83.17" x2="492.53" y2="90.18" gradientTransform="translate(507.21 177.25) rotate(-153.06) scale(1 -1)" xlink:href="#linear-gradient-3"/>
    <linearGradient id="linear-gradient-17" x1="485.39" y1="74.58" x2="503.7" y2="74.58" gradientTransform="translate(507.21 177.25) rotate(-153.06) scale(1 -1)" xlink:href="#linear-gradient"/>
    <linearGradient id="linear-gradient-18" x1="485.55" y1="74.59" x2="503.55" y2="74.59" gradientTransform="translate(507.21 177.25) rotate(-153.06) scale(1 -1)" xlink:href="#linear-gradient-4"/>
    <linearGradient id="linear-gradient-19" x1="495.17" y1="69.37" x2="492.49" y2="76.24" gradientTransform="translate(507.21 177.25) rotate(-153.06) scale(1 -1)" xlink:href="#linear-gradient-3"/>
    <linearGradient id="linear-gradient-20" x1="485.07" y1="74.7" x2="503.66" y2="74.7" gradientTransform="translate(507.21 177.25) rotate(-153.06) scale(1 -1)" xlink:href="#linear-gradient-2"/>
    <linearGradient id="linear-gradient-21" x1="482.58" y1="70.57" x2="496.57" y2="75.42" gradientTransform="translate(507.21 177.25) rotate(-153.06) scale(1 -1)" xlink:href="#linear-gradient-4"/>
    <linearGradient id="linear-gradient-22" x1="495.88" y1="78.36" x2="491.21" y2="72.11" gradientTransform="translate(507.21 177.25) rotate(-153.06) scale(1 -1)" xlink:href="#linear-gradient-3"/>
    <linearGradient id="linear-gradient-23" x1="220.46" y1="72.73" x2="225.94" y2="72.73" xlink:href="#linear-gradient-2"/>
    <linearGradient id="linear-gradient-24" x1="223.02" y1="68.79" x2="223.27" y2="75.05" xlink:href="#linear-gradient-4"/>
    <linearGradient id="linear-gradient-25" x1="223.3" y1="75.72" x2="223.24" y2="72.25" xlink:href="#linear-gradient-3"/>
  </defs>
  <g class="cls-21">
    <g id="Layer_2" data-name="Layer 2">
      <g id="Layer_1-2" data-name="Layer 1">
        <g>
          <g>
            <g>
              <g>
                <path class="cls-20" d="M8.78,25.81s-.41-.2-1.04-.58c-1.44-.88-3.45-2.34-4.85-4.32-1.28-1.8-2-3.76-2.38-5.08-.24-.88-.33-1.44-.33-1.46l-.02-.13,5.13-1.73,2.75-.92,15.8-.31.04.11c.02.06.43,1.47-2.8,5.99-.42.59-.95,1.19-1.58,1.79-3.86,3.68-10.52,6.63-10.59,6.66l-.06.03-.06-.03Z"/>
                <path class="cls-22" d="M23.74,11.42s.45,1.35-2.78,5.86c-.43.6-.96,1.19-1.56,1.77-3.88,3.71-10.55,6.63-10.55,6.63,0,0-.4-.19-1.02-.58-1.24-.76-3.36-2.23-4.81-4.28-1.29-1.81-1.99-3.75-2.36-5.04-.24-.88-.33-1.45-.33-1.45l5.01-1.69,2.75-.92,15.64-.3M23.96,11.11h-.22s-15.64.31-15.64.31h-.05s-.04.02-.04.02l-2.75.92L.24,14.04l-.24.08.04.25s.09.6.34,1.48c.38,1.34,1.11,3.32,2.4,5.13,1.42,2.01,3.45,3.48,4.9,4.37.62.39,1.03.58,1.05.59l.13.06.13-.06c.07-.03,6.76-2.99,10.64-6.69.64-.61,1.17-1.22,1.6-1.81,3.23-4.5,2.87-5.98,2.82-6.13l-.07-.21h0Z"/>
              </g>
              <g>
                <path class="cls-3" d="M8.08,22.09c-4.01-2.49-4.64-5.83-4.64-5.86l-.02-.12h.12c2.77-.14,7.76-1.57,11.46-2.74,3.08-.97,5.5-1.86,5.53-1.87l1.87.55.25.08-.08.12c-5.14,7.3-14.29,9.83-14.39,9.85h-.04s-.04-.01-.04-.01Z"/>
                <path class="cls-23" d="M20.55,11.6l1.8.56.11.04c-5.17,7.36-14.33,9.81-14.33,9.81-4.02-2.49-4.6-5.79-4.6-5.79,2.73-.13,7.65-1.52,11.48-2.74,3.12-.99,5.53-1.87,5.53-1.87M20.55,11.37l-.07.02s-2.44.89-5.52,1.86c-3.69,1.17-8.67,2.6-11.43,2.73h-.24s.04.25.04.25c.02.14.64,3.42,4.69,5.94l.08.05.09-.02c.09-.02,9.29-2.56,14.45-9.89l.17-.24-.28-.09-.11-.04-1.8-.56-.07-.02h0Z"/>
              </g>
              <path class="cls-10" d="M22.46,12.19c-5.17,7.36-14.33,9.81-14.33,9.81-4.02-2.49-4.6-5.79-4.6-5.79,2.73-.13,7.65-1.52,11.48-2.74-1.46.76-3.23,1.55-5.09,2.07-4.74,1.35-5.74,1.37-5.74,1.37,0,0,.96,2.3,2.24,3.29,1.28.99,1.85,1.37,1.85,1.37,0,0,4.59-1.54,9.65-5.21,1.83-1.33,3.3-2.83,4.42-4.21l.11.04Z"/>
              <path class="cls-18" d="M20.96,17.27c-3.24,4.5-12.11,8.4-12.11,8.4,0,0-.4-.19-1.02-.58,2.44-1.09,6.17-5.51,6.17-5.51,0,0-4.94,1.04-6.28-1.25-1.34-2.31,3.18-2.89,3.82-3.91.5-.8-7.44.68-10.87,1.35-.24-.88-.33-1.45-.33-1.45l7.76-2.61,15.64-.3s.45,1.35-2.78,5.86Z"/>
              <path class="cls-11" d="M19.4,19.04c-3.88,3.71-10.55,6.63-10.55,6.63,0,0-.4-.19-1.02-.58-1.24-.76-3.36-2.23-4.81-4.28-1.29-1.81-1.99-3.75-2.36-5.04-.24-.88-.33-1.45-.33-1.45l5.01-1.69v.09s-3.89,2.03-3.89,2.03c0,0,1.95,4.88,3.72,6.98,1.78,2.09,3.63,2.79,3.63,2.79,0,0,8.28-3.68,10.59-5.5Z"/>
            </g>
            <g>
              <g>
                <path class="cls-1" d="M15.44,15.55c-4.07,0-10.03-1.23-10.85-2.03-.16-.17-.33-.59.09-2.35.77-3.29,3.06-9.12,3.6-10.13l.13-.22c.21-.34.4-.67.94-.67.45,0,1.14.24,2.21.78.85.43,1.92,1.03,3.18,1.78,5.06,2.98,7.99,7.71,8.52,8.62.09.15.17.3.17.3l-.9,1.78s-.16.19-.48.4c-.59.4-1.92,1.13-4.45,1.58-.59.1-1.32.16-2.16.16Z"/>
                <path class="cls-22" d="M9.35.3c.4,0,1.04.21,2.14.77.79.4,1.82.97,3.17,1.77,4.96,2.92,7.85,7.51,8.47,8.57.09.15.13.22.13.22l-.87,1.71s-.11.14-.43.34h-.01c-.6.42-1.92,1.12-4.38,1.56-.61.11-1.33.15-2.13.15-4.08,0-9.97-1.23-10.74-1.99-.23-.23-.14-1.07.13-2.21.77-3.29,3.06-9.1,3.59-10.1.03-.03.04-.06.06-.09.24-.39.38-.72.88-.72M9.35,0h0c-.62,0-.86.39-1.07.74l-.07.12-.02.03-.04.08c-.54,1.02-2.84,6.87-3.62,10.17-.43,1.8-.27,2.27-.05,2.49.94.92,7.08,2.08,10.96,2.08.85,0,1.59-.05,2.18-.16,2.51-.45,3.87-1.17,4.47-1.58l.04-.02c.33-.22.47-.37.49-.4l.02-.03.02-.03.87-1.71.07-.14-.07-.14s-.04-.08-.13-.24c-.54-.92-3.49-5.68-8.58-8.68-1.26-.75-2.33-1.35-3.19-1.78-1.1-.55-1.8-.8-2.28-.8h0Z"/>
              </g>
              <path class="cls-19" d="M23.26,11.63l-.87,1.71s-1.11,1.24-4.82,1.91c-3.7.65-11.95-.93-12.88-1.83-.23-.23-.14-1.07.13-2.21.31.17.64.34.97.48,3.01,1.29,14.17,1.87,13.29-1.89-.78-3.39-9.04-7.84-10.67-8.69.03-.03.04-.06.06-.09.57-.92.56-1.5,6.19,1.82,4.96,2.92,7.85,7.51,8.47,8.57.09.15.13.22.13.22Z"/>
              <path class="cls-9" d="M21.95,13.69c-.6.42-1.92,1.12-4.38,1.56-3.7.65-11.95-.93-12.88-1.83-.23-.23-.14-1.07.13-2.21.77-3.29,3.06-9.1,3.59-10.1.03-.03.04-.06.06-.09.43-.69.53-1.2,3.03.05-.66-.06-1.38-.07-1.86.09-1.22.4-4.15,11.53-4.15,11.53,0,0,2.46,1.21,6.25,1.76,3.68.53,9.84-.68,10.23-.76Z"/>
            </g>
            <g>
              <path class="cls-2" d="M22.71,12.75s-2-.63-4.84-1.32c-1.53-.38-3.24-.75-4.94-1.07-3.88-.71-6.25-.81-7.32-.81-.34,0-.51.01-.51.01-.11-.06-.52-.56-.39-1.41.11-.75.78-1.54.95-1.74-.05-.21-.16-.91.22-1.33.19-.22.41-.41,1.02-.41.11,0,.22,0,.36.02.96.11,2.57.57,4.92,1.42.99.35,2.08.81,3.24,1.36,1.99.93,3.74,1.89,4.87,2.53.02,0,.07.02.11.06,1.66.95,2.79,1.68,2.8,1.69l.08.05-.5.98-.09-.03Z"/>
              <path class="cls-23" d="M6.91,4.78c.1,0,.22,0,.35.02h0c.84.09,2.28.47,4.89,1.41,1.08.38,2.17.85,3.23,1.35l.05.02c1.78.83,3.47,1.73,4.81,2.5.03,0,.07.02.09.05,1.69.97,2.81,1.7,2.81,1.7l-.41.81s-1.97-.62-4.85-1.32c-1.45-.36-3.15-.73-4.95-1.07-3.96-.72-6.36-.82-7.34-.82-.35,0-.52.01-.52.01,0,0-.4-.47-.27-1.28.12-.82.96-1.73.96-1.73,0,0-.23-.84.19-1.29.17-.2.37-.37.94-.37M6.91,4.57h0c-.65,0-.9.22-1.1.45-.39.43-.31,1.1-.26,1.37-.22.25-.83,1.02-.94,1.75-.14.9.3,1.43.32,1.45l.07.08h.11s.17-.02.5-.02c1.06,0,3.43.11,7.3.81,1.71.32,3.41.69,4.93,1.07,2.84.68,4.82,1.31,4.83,1.31l.17.05.08-.16.41-.81.09-.17-.16-.1s-1.15-.74-2.82-1.71c-.02-.02-.06-.04-.12-.06-1.13-.65-2.87-1.6-4.81-2.5l-.04-.02c-1.19-.56-2.25-1.01-3.26-1.36-2.33-.84-3.93-1.3-4.9-1.41h0s-.05,0-.05,0c-.14-.01-.26-.02-.37-.02h0Z"/>
            </g>
            <path class="cls-8" d="M23.15,11.84l-.41.81s-4.46-1.41-9.79-2.39c-5.35-.98-7.85-.8-7.85-.8,0,0-.4-.47-.27-1.28.12-.82.96-1.73.96-1.73,0,0-.23-.84.19-1.29.2-.23.44-.44,1.29-.36-.22.18-.39.36-.45.52-.23.61.18,1.38.18,1.38,0,0-.72.31-1.06,1.06-.33.75.11,1.05.11,1.05,0,0,2.81,0,7.76.65,4.43.59,4.31-.32,1.63-1.88,4.11,1.9,7.72,4.25,7.72,4.25Z"/>
            <path class="cls-12" d="M11.44,9.78c2.61.46,4.99,1.1,6.45,1.55-1.45-.36-3.15-.73-4.95-1.07-5.35-.98-7.85-.8-7.85-.8,0,0-.4-.47-.27-1.28.12-.82.96-1.73.96-1.73,0,0-.23-.84.19-1.29.2-.23.44-.44,1.29-.36h0c.84.09,2.28.47,4.89,1.41,1.08.38,2.17.85,3.23,1.35l.05.02c1.78.83,3.47,1.73,4.81,2.5-1.96-.98-5.34-2.58-8.65-3.67-5.06-1.68-5.1-1.42-5.44-.89-.34.54.02,1.07.02,1.07,0,0-.7.35-1.05,1.26-.35.92.17,1.36.17,1.36,0,0,1.88-.17,6.15.57Z"/>
          </g>
          <g>
            <g>
              <g>
                <path class="cls-24" d="M29.18,34.85c-2.38,0-4.68-.75-6.19-1.37-.68-.28-1.08-.49-1.08-.49l-.06-.03-.02-.07c-.02-.07-1.56-7.19-.86-12.48.12-.86.29-1.65.51-2.33,1.74-5.28,3.13-5.78,3.19-5.79l.11-.03,9.04,12.91.9,2.81,1.63,5.16-.11.06s-.53.27-1.38.59c-1.3.48-3.3,1.05-5.51,1.08h-.17Z"/>
                <path class="cls-22" d="M24.72,12.42l8.98,12.81.88,2.77,1.59,5.04s-.51.27-1.36.59c-1.25.46-3.24,1.04-5.46,1.07-.06,0-.11,0-.17,0-2.45,0-4.82-.82-6.13-1.36-.67-.27-1.07-.49-1.07-.49,0,0-1.57-7.11-.86-12.43.11-.82.27-1.6.51-2.3,1.74-5.27,3.09-5.7,3.09-5.7M24.84,12.06l-.21.07c-.15.05-1.55.63-3.29,5.89-.23.69-.4,1.49-.52,2.36-.7,5.31.85,12.46.87,12.53l.03.14.12.07s.42.22,1.1.5c1.52.63,3.84,1.38,6.24,1.38h.17c2.23-.03,4.25-.61,5.56-1.09.86-.33,1.38-.59,1.4-.6l.23-.12-.08-.24-1.59-5.04-.88-2.77v-.04s-.04-.04-.04-.04l-8.98-12.81-.13-.18h0Z"/>
              </g>
              <g>
                <path class="cls-25" d="M29.64,32.25c-1.41,0-2.86-.3-4.31-.88-.09-.15-3.45-9.04-.58-17.49l.05-.14.21.15,1.51,1.12c.05.08.76,2.56,1.79,5.62,1.23,3.68,3.02,8.55,4.54,10.87l.07.1-.11.05s-1.22.59-3.17.59c0,0,0,0,0,0Z"/>
                <path class="cls-23" d="M24.85,13.91l.09.07,1.51,1.12s.71,2.47,1.75,5.57c1.28,3.82,3.05,8.61,4.55,10.89,0,0-1.17.58-3.12.58-1.17,0-2.62-.21-4.27-.87,0,0-3.41-8.84-.52-17.36M24.74,13.57l-.09.27c-2.88,8.49.49,17.41.52,17.5l.03.09.09.03c1.46.59,2.92.89,4.35.89,1.98,0,3.17-.57,3.22-.6l.22-.11-.13-.2c-1.52-2.31-3.3-7.17-4.53-10.84-1.03-3.06-1.74-5.54-1.75-5.56l-.02-.07-.06-.04-1.51-1.12-.09-.07-.24-.17h0Z"/>
              </g>
              <path class="cls-15" d="M24.85,13.91c-2.89,8.51.52,17.36.52,17.36,4.38,1.78,7.39.3,7.39.3-1.51-2.29-3.28-7.08-4.55-10.89.25,1.63.66,3.52,1.32,5.33,1.7,4.62,2.28,5.44,2.28,5.44,0,0-2.42.58-3.97.13-1.55-.45-2.2-.69-2.2-.69,0,0-1.46-4.61-1.48-10.86,0-2.26.34-4.33.79-6.05l-.09-.07Z"/>
              <path class="cls-4" d="M21.63,18.12c-1.73,5.27.35,14.73.35,14.73,0,0,.4.21,1.07.49-.56-2.61.81-8.23.81-8.23,0,0,2.07,4.61,4.71,4.34,2.65-.27.46-4.27.91-5.39.35-.87,3.84,6.41,5.32,9.57.85-.32,1.36-.59,1.36-.59l-2.47-7.8-8.98-12.81s-1.35.43-3.09,5.7Z"/>
              <path class="cls-16" d="M21.12,20.42c-.7,5.32.86,12.43.86,12.43,0,0,.4.21,1.07.49,1.34.56,3.78,1.4,6.29,1.36,2.22-.03,4.21-.61,5.46-1.07.85-.32,1.36-.59,1.36-.59l-1.59-5.04-.07.05.65,4.34s-5.09,1.3-7.83,1.11c-2.74-.2-4.4-1.29-4.4-1.29,0,0-1.91-8.86-1.8-11.8Z"/>
            </g>
            <g>
              <g>
                <path class="cls-28" d="M35.34,29.15c-1.41-.24-7.56-6.09-9.19-9.4-1.13-2.31-1.32-3.82-1.34-4.52-.02-.4.02-.58.03-.6l.92-1.81s.17-.02.34-.04c.37-.04,1.15-.1,2.21-.1,2.45,0,6.14.33,9.78,1.9,1.35.58,2.46,1.09,3.31,1.52,2.35,1.21,2.29,1.68,1.95,2.47l-.1.24c-.5,1.04-3.86,6.33-6.06,8.88-1.25,1.46-1.65,1.46-1.78,1.46h-.06Z"/>
                <path class="cls-22" d="M28.31,12.82c2.35,0,6.06.31,9.72,1.89,1.45.62,2.51,1.11,3.3,1.52,2.48,1.27,2.13,1.65,1.83,2.41-.01.03-.03.05-.04.1-.49,1.02-3.84,6.29-6.04,8.85-.73.86-1.34,1.41-1.67,1.41-.01,0-.03,0-.04,0-1.27-.21-7.42-5.94-9.07-9.32-1.1-2.25-1.31-3.73-1.32-4.46h0c-.02-.39.03-.56.03-.56l.87-1.71s.09-.01.26-.03c.38-.04,1.15-.1,2.2-.1M28.31,12.52c-1.07,0-1.86.06-2.23.1-.18.02-.27.03-.27.03l-.15.02-.07.14-.87,1.71-.02.03v.03s-.06.23-.04.63v.04s0,.01,0,.01c.02.73.24,2.25,1.35,4.54,1.64,3.34,7.86,9.25,9.29,9.49h.02s.06,0,.06,0c.28,0,.75-.17,1.9-1.52,2.21-2.57,5.58-7.88,6.08-8.92l.02-.03v-.03s.01-.01.01-.01l.02-.04.05-.13c.39-.93.32-1.47-2.02-2.67-.85-.43-1.97-.95-3.32-1.53-3.66-1.58-7.37-1.92-9.84-1.92h0Z"/>
              </g>
              <path class="cls-7" d="M25.85,12.95l-.87,1.71s-.35,1.63,1.3,5.02c1.65,3.38,7.8,9.11,9.07,9.32.32.05.95-.51,1.71-1.41-.32-.15-.65-.32-.96-.5-2.82-1.67-9.87-10.34-6.31-11.85,3.2-1.37,11.67,2.68,13.31,3.5,0-.04.02-.07.04-.1.41-1,.88-1.33-5.12-3.93-5.29-2.29-10.7-1.92-11.91-1.79-.17.02-.26.03-.26.03Z"/>
              <path class="cls-14" d="M24.96,15.22c.02.73.23,2.21,1.32,4.46,1.65,3.38,7.8,9.11,9.07,9.32.32.05.95-.51,1.71-1.41,2.2-2.56,5.55-7.83,6.04-8.85,0-.04.02-.07.04-.1.31-.76.66-1.14-1.83-2.41.44.5.87,1.07,1.02,1.56.4,1.22-6.86,10.15-6.86,10.15,0,0-2.43-1.28-5.11-4.01-2.6-2.66-5.25-8.35-5.42-8.71Z"/>
            </g>
            <g>
              <path class="cls-26" d="M38.31,26.45c-.1-.07-1.46-2.21-5.35-5.9-1.27-1.19-2.57-2.36-3.77-3.36-2.23-1.89-3.9-3.12-3.92-3.13l-.07-.05.5-.98.09.03s1.27.49,3.04,1.27c.03,0,.08.03.12.06,1.16.52,2.97,1.37,4.84,2.4,1.19.65,2.18,1.24,3.05,1.84,2.07,1.4,3.39,2.43,4.04,3.14.6.67.58,1.02.5,1.35-.12.56-.75.88-.95.96-.05.25-.3,1.26-.84,1.79-.53.53-1.09.57-1.24.57h-.04Z"/>
              <path class="cls-23" d="M25.75,13.16s1.25.48,3.03,1.27c.03,0,.07.02.09.05,1.41.63,3.14,1.46,4.86,2.41l.05.02c1.03.56,2.05,1.17,3,1.81,2.29,1.55,3.45,2.49,4.02,3.12h0c.56.64.54.95.47,1.25-.12.6-.93.91-.93.91,0,0-.23,1.21-.83,1.8-.51.51-1.04.54-1.17.54-.02,0-.03,0-.03,0,0,0-1.34-2.12-5.28-5.87-1.33-1.25-2.63-2.4-3.78-3.36-2.26-1.92-3.92-3.14-3.92-3.14l.41-.81M25.65,12.89l-.09.17-.41.81-.08.16.15.11s1.68,1.24,3.91,3.13c1.2,1,2.51,2.17,3.77,3.36,3.87,3.68,5.23,5.81,5.24,5.83l.06.09h.11s0,0,0,0c.22,0,.8-.05,1.36-.6.53-.52.79-1.47.86-1.79.25-.12.84-.45.96-1.02.08-.36.1-.74-.52-1.44l-.03-.03h0c-.66-.72-1.98-1.74-4.03-3.13-.88-.6-1.87-1.2-3.02-1.82l-.05-.03c-1.86-1.03-3.66-1.87-4.85-2.41-.05-.03-.1-.06-.16-.07-1.73-.77-2.99-1.26-3-1.26l-.18-.07h0Z"/>
            </g>
            <path class="cls-5" d="M25.75,13.16l-.41.81s3.76,2.77,7.7,6.5c3.94,3.75,5.28,5.87,5.28,5.87,0,0,.61.04,1.2-.54.59-.58.83-1.8.83-1.8,0,0,.81-.31.93-.91.07-.3.09-.62-.47-1.25-.02.28-.06.53-.16.67-.35.54-1.23.67-1.23.67,0,0,.18.77-.23,1.48-.41.71-.91.53-.91.53,0,0-1.66-2.28-5.1-5.88-3.09-3.23-2.28-3.67.56-2.42-3.96-2.19-7.98-3.73-7.98-3.73Z"/>
            <path class="cls-13" d="M34.32,21.41c-1.91-1.84-3.83-3.38-5.05-4.3,1.15.96,2.45,2.11,3.78,3.36,3.94,3.75,5.28,5.87,5.28,5.87,0,0,.61.04,1.2-.54.59-.58.83-1.8.83-1.8,0,0,.81-.31.93-.91.07-.3.09-.62-.47-1.25h0c-.57-.63-1.72-1.57-4.02-3.12-.94-.64-1.97-1.25-3-1.81l-.05-.02c-1.72-.95-3.45-1.78-4.86-2.41,1.95,1,5.23,2.79,8.06,4.82,4.34,3.09,4.15,3.28,3.92,3.87-.23.59-.87.62-.87.62,0,0,.13.77-.39,1.59-.54.83-1.19.66-1.19.66,0,0-.97-1.62-4.09-4.63Z"/>
          </g>
          <g>
            <path class="cls-27" d="M24.89,16.04s-.08,0-.13-.02c-.58-.14-1.44-.62-1.91-.9-.49-.21-1.4-.63-1.85-1.01-.62-.52.16-1.83.81-2.77l.45-.63c.09-.12.2-.19.34-.22.06-.02.14-.03.23-.03.63,0,1.53.49,2.01.78.34.14,1.51.65,1.85,1.26.11.15.14.33.08.5l-.07.21c-.31.92-.88,2.65-1.66,2.81-.05.01-.1.02-.14.02Z"/>
            <path class="cls-23" d="M22.83,10.57c.64,0,1.59.54,1.95.76.39.16,1.5.67,1.81,1.22.09.12.12.27.07.41-.25.75-.87,2.79-1.65,2.95-.04.01-.08.02-.12.02-.03,0-.07,0-.1-.01-.51-.13-1.3-.55-1.88-.89-.62-.27-1.43-.66-1.83-1-.55-.46.23-1.75.83-2.63.18-.26.34-.47.45-.63.07-.09.15-.15.27-.17.07-.02.14-.03.21-.03M22.83,10.36h0c-.1,0-.19.01-.27.03-.15.02-.29.11-.39.25l-.18.26c-.08.11-.17.24-.27.38-.67.98-1.47,2.34-.79,2.92.46.39,1.38.81,1.89,1.03.45.27,1.32.75,1.91.9.05.01.1.02.15.02s.11,0,.17-.02c.77-.16,1.3-1.57,1.74-2.88l.07-.21c.07-.2.04-.42-.1-.61-.34-.61-1.54-1.14-1.9-1.29-.46-.28-1.38-.78-2.03-.78h0Z"/>
          </g>
          <path class="cls-6" d="M24.78,15.92c-.51-.12-1.3-.55-1.88-.89-.62-.27-1.43-.66-1.83-1-.71-.59.78-2.57,1.27-3.26.07-.09.16-.15.27-.17-.37.64-1.19,2.16-1,2.84.25.87,2.73,1.69,3.19,1.69.31-.01,1.23-1.61,1.79-2.58.09.12.11.27.07.41-.27.81-.99,3.18-1.88,2.95Z"/>
          <path class="cls-17" d="M25.01,15.92c.21-.2.39-.42.51-.65.44-.83,1.04-2.38.46-2.8-.58-.42-1.28-.34-1.54-.47s-.57-.8-1.51-.99c-.25-.05-.62.12-1.03.39.18-.26.34-.47.45-.63.07-.09.15-.15.27-.17.61-.16,1.76.49,2.17.74.39.16,1.5.67,1.81,1.22.09.12.12.27.07.41-.25.75-.87,2.79-1.65,2.95Z"/>
        </g>
      </g>
    </g>
  </g>
</svg>